<?xml version="1.0" encoding="UTF-8"?><svg id="Calque_2" xmlns="http://www.w3.org/2000/svg" xmlns:xlink="http://www.w3.org/1999/xlink" viewBox="0 0 476.68 297.47"><defs><style>.cls-1,.cls-2,.cls-3,.cls-4,.cls-5,.cls-6,.cls-7{fill:none;}.cls-2{clip-path:url(#clippath-3);}.cls-3{clip-path:url(#clippath-4);}.cls-4{clip-path:url(#clippath-2);}.cls-5{clip-path:url(#clippath-1);}.cls-8{fill:#0081c4;}.cls-9{fill:#0080a3;}.cls-10{fill:#0999ac;}.cls-11{fill:#0c99ab;}.cls-6{clip-path:url(#clippath);}.cls-7{opacity:.15;}</style><clipPath id="clippath"><rect class="cls-1" width="476.68" height="297.47"/></clipPath><clipPath id="clippath-1"><rect class="cls-1" width="476.68" height="297.47"/></clipPath><clipPath id="clippath-2"><rect class="cls-1" x="-9" y="-7" width="494.68" height="305.47"/></clipPath><clipPath id="clippath-3"><rect class="cls-1" width="476.68" height="297.47"/></clipPath><clipPath id="clippath-4"><rect class="cls-1" width="476.68" height="297.47"/></clipPath></defs><g id="Calque_3"><g class="cls-6"><g class="cls-5"><g class="cls-7"><g class="cls-4"><g class="cls-2"><path class="cls-8" d="m58.75,88.62c-18.82,0-34.08-15.26-34.08-34.08s15.26-34.08,34.08-34.08,34.08,15.26,34.08,34.08-15.26,34.08-34.08,34.08"/><path class="cls-11" d="m460.87,169.45c-6.46,0-11.7-5.24-11.7-11.7s5.24-11.7,11.7-11.7,11.7,5.24,11.7,11.7-5.24,11.7-11.7,11.7"/></g><g class="cls-3"><path class="cls-9" d="m-47.96-112.92h.16c41.36,0,82.35,19.07,108.99,50.71C84.32-34.74,96.28.46,116.23,30.59c8.94,13.49,20.63,26.24,34.03,35.63,13.4,9.39,28.51,15.42,44.27,15.42,3.7,0,7.43-.33,11.18-1.03,24.54-4.58,43.97-24.11,55.46-46.14,11.48-22.03,16.44-46.7,22.56-70.66,6.12-23.96,13.89-48.23,29.66-67.13,17.74-21.27,45.34-33.86,72.99-33.86,3.49,0,6.98.2,10.45.61l.12-.99c-3.51-.41-7.04-.62-10.57-.62-27.95,0-55.81,12.71-73.76,34.22-15.94,19.11-23.73,43.53-29.86,67.52-6.13,24-11.08,48.58-22.48,70.44-11.39,21.86-30.64,41.14-54.76,45.62-3.69.69-7.36,1.01-11,1.01-15.5,0-30.42-5.93-43.69-15.24-13.27-9.3-24.89-21.96-33.77-35.36C97.19.06,85.24-35.18,61.95-62.86c-26.83-31.87-68.09-51.07-109.75-51.07h-.16v1Z"/><path class="cls-9" d="m-34.04-114.44h.15c38.76,0,77.18,17.87,102.14,47.53,21.68,25.75,32.89,58.74,51.6,86.99,8.38,12.65,19.35,24.6,31.91,33.41,12.56,8.8,26.74,14.46,41.51,14.46,3.47,0,6.97-.31,10.49-.97,23.02-4.29,41.24-22.61,52.01-43.27,10.77-20.66,15.41-43.78,21.15-66.24,5.74-22.46,13.02-45.21,27.8-62.92,16.63-19.93,42.49-31.73,68.4-31.73,3.27,0,6.54.19,9.8.57l.12-.99c-3.29-.39-6.6-.58-9.91-.58-26.21,0-52.33,11.92-69.17,32.09-14.95,17.92-22.25,40.81-28,63.31-5.74,22.5-10.39,45.54-21.07,66.03-10.68,20.48-28.72,38.55-51.31,42.75-3.46.64-6.9.95-10.31.95-14.52,0-28.5-5.56-40.94-14.28-12.44-8.72-23.33-20.58-31.65-33.14-18.62-28.09-29.83-61.13-51.67-87.08-25.16-29.89-63.84-47.88-102.91-47.88h-.15v1Z"/><path class="cls-9" d="m-20.12-115.96h.14c36.16,0,72.01,16.68,95.3,44.34,20.23,24.02,30.69,54.82,48.15,81.18,7.83,11.81,18.06,22.97,29.79,31.18,11.73,8.22,24.96,13.5,38.76,13.5,3.24,0,6.51-.29,9.79-.9,21.5-4.01,38.51-21.11,48.56-40.4,10.05-19.28,14.39-40.87,19.74-61.83,5.35-20.96,12.15-42.18,25.94-58.7,15.51-18.59,39.64-29.6,63.81-29.6,3.05,0,6.1.18,9.14.53l.12-.99c-3.07-.36-6.17-.54-9.25-.54-24.47,0-48.86,11.12-64.58,29.96-13.95,16.73-20.77,38.1-26.14,59.1-5.36,20.99-9.69,42.5-19.66,61.61-9.96,19.11-26.79,35.96-47.86,39.88-3.23.6-6.43.89-9.61.89-13.54,0-26.58-5.19-38.19-13.32-11.6-8.13-21.77-19.2-29.53-30.92-17.38-26.21-27.84-57.04-48.22-81.27-23.49-27.9-59.59-44.7-96.06-44.7h-.14v1Z"/><path class="cls-9" d="m-6.2-117.48h.13c33.56,0,66.84,15.48,88.45,41.16C101.16-54.03,110.87-25.44,127.09-.96c7.27,10.97,16.77,21.33,27.67,28.96,10.89,7.63,23.18,12.54,36.01,12.54,3.01,0,6.05-.27,9.1-.84,19.98-3.73,35.77-19.61,45.12-37.53,9.34-17.91,13.36-37.95,18.34-57.41,4.97-19.46,11.28-39.16,24.07-54.49,14.39-17.25,36.78-27.47,59.22-27.47,2.83,0,5.66.16,8.48.49l.12-.99c-2.86-.34-5.73-.5-8.6-.5-22.73,0-45.39,10.33-59.98,27.83-12.96,15.54-19.29,35.39-24.28,54.88-4.98,19.49-9,39.46-18.25,57.2-9.24,17.74-24.86,33.37-44.41,37.01-2.99.56-5.97.82-8.92.82-12.56,0-24.66-4.81-35.44-12.36-10.77-7.55-20.2-17.82-27.41-28.7-16.13-24.33-25.84-52.96-44.77-75.46-21.81-25.91-55.35-41.51-89.22-41.51h-.13v1Z"/><path class="cls-9" d="m7.72-119h.12c30.96,0,61.67,14.28,81.61,37.97,17.33,20.57,26.29,46.95,41.26,69.55,6.71,10.13,15.49,19.69,25.55,26.74,10.06,7.05,21.41,11.58,33.26,11.58,2.78,0,5.59-.25,8.41-.77,18.45-3.44,33.04-18.11,41.67-34.66,8.62-16.54,12.33-35.04,16.92-53,4.59-17.96,10.41-36.13,22.21-50.28,13.27-15.91,33.93-25.34,54.62-25.34,2.61,0,5.22.15,7.82.46l.12-.99c-2.64-.31-5.29-.46-7.94-.46-20.99,0-41.91,9.54-55.39,25.7-11.97,14.35-17.81,32.67-22.41,50.67-4.6,17.99-8.31,36.42-16.84,52.78-8.53,16.36-22.94,30.78-40.96,34.13-2.76.51-5.5.76-8.22.76-11.59,0-22.75-4.44-32.68-11.4-9.93-6.96-18.64-16.44-25.29-26.48-14.89-22.45-23.85-48.87-41.33-69.65-20.14-23.92-51.1-38.33-82.37-38.33h-.12v1Z"/><path class="cls-10" d="m169.83,471.14c-4.14-15.1-7.6-31-7.59-46.5,0-10.23,1.5-20.27,5.3-29.82,6.25-15.72,18.05-28,32.53-36.86,14.47-8.86,31.61-14.29,48.47-16.32,7.52-.9,15.05-1.27,22.6-1.27,26.32,0,52.79,4.5,79.24,6.51,7.18.55,14.48.88,21.78.88,27.3,0,54.75-4.63,76.98-20.04,19.54-13.55,32.47-33.48,44.91-53.94,12.43-20.47,24.37-41.48,41.83-57.27,20.02-18.11,47.08-27.88,74.04-27.88,12.22,0,24.42,2.01,35.94,6.15l.34-.94c-11.63-4.18-23.95-6.21-36.28-6.21-27.2,0-54.49,9.85-74.71,28.14-17.61,15.94-29.59,37.04-42.01,57.49-12.43,20.45-25.3,40.24-44.62,53.64-21.99,15.24-49.21,19.87-76.41,19.86-7.27,0-14.54-.33-21.7-.88-26.39-2.01-52.88-6.52-79.32-6.52-7.58,0-15.15.37-22.72,1.28-16.99,2.04-34.26,7.51-48.87,16.46-14.61,8.95-26.59,21.38-32.93,37.35-3.85,9.68-5.37,19.86-5.37,30.18,0,15.65,3.48,31.63,7.63,46.77l.97-.26h0Z"/><path class="cls-10" d="m195.58,471.14c-3.92-14.29-7.18-29.33-7.18-43.98,0-9.67,1.42-19.17,5.01-28.19,5.91-14.87,17.07-26.48,30.76-34.86,13.69-8.38,29.89-13.52,45.84-15.43,7.11-.85,14.24-1.2,21.38-1.2,24.9,0,49.93,4.26,74.96,6.16,6.8.52,13.7.83,20.6.83,25.83,0,51.8-4.38,72.84-18.96,18.49-12.82,30.73-31.68,42.49-51.04,11.76-19.36,23.06-39.24,39.56-54.17,18.93-17.13,44.53-26.37,70.03-26.37,11.56,0,23.1,1.9,33.99,5.82l.34-.94c-11.01-3.96-22.66-5.87-34.33-5.87-25.74,0-51.56,9.32-70.7,26.63-16.67,15.08-27.99,35.05-39.75,54.39-11.75,19.35-23.93,38.07-42.21,50.73-20.79,14.42-46.54,18.79-72.27,18.79-6.88,0-13.75-.31-20.53-.83-24.96-1.9-50.02-6.16-75.03-6.16-7.17,0-14.34.35-21.5,1.21-16.08,1.93-32.41,7.11-46.24,15.57-13.83,8.47-25.16,20.24-31.16,35.34-3.64,9.16-5.08,18.8-5.08,28.56,0,14.81,3.3,29.92,7.22,44.25l.96-.26h0Z"/><path class="cls-10" d="m221.33,471.14c-3.69-13.47-6.77-27.65-6.77-41.46,0-9.12,1.34-18.07,4.72-26.57,5.57-14.01,16.09-24.95,28.99-32.85,12.9-7.9,28.18-12.74,43.21-14.55,6.71-.81,13.42-1.13,20.15-1.13,23.47,0,47.08,4.01,70.67,5.81,6.41.49,12.91.78,19.43.78,24.36,0,48.85-4.13,68.7-17.89,17.44-12.09,28.98-29.88,40.07-48.13,11.09-18.26,21.74-36.99,37.3-51.07,17.85-16.15,41.97-24.85,66.01-24.85,10.9,0,21.77,1.79,32.04,5.48l.34-.94c-10.38-3.73-21.37-5.54-32.38-5.54-24.28,0-48.63,8.79-66.68,25.11-15.72,14.22-26.4,33.05-37.48,51.29-11.08,18.24-22.56,35.89-39.79,47.83-19.6,13.59-43.87,17.71-68.13,17.71-6.48,0-12.96-.29-19.35-.78-23.54-1.79-47.16-5.81-70.75-5.81-6.76,0-13.52.33-20.27,1.14-15.16,1.82-30.57,6.7-43.61,14.69-13.04,7.99-23.73,19.09-29.4,33.34-3.44,8.64-4.79,17.73-4.79,26.94,0,13.96,3.11,28.22,6.81,41.73l.96-.26h0Z"/><path class="cls-10" d="m247.08,471.14c-3.47-12.65-6.36-25.97-6.36-38.94,0-8.56,1.26-16.97,4.43-24.95,5.23-13.16,15.11-23.43,27.22-30.85,12.11-7.42,26.46-11.97,40.58-13.66,6.3-.76,12.61-1.07,18.93-1.07,22.05,0,44.22,3.77,66.39,5.46,6.02.46,12.13.74,18.25.74,22.89,0,45.9-3.88,64.55-16.81,16.39-11.36,27.23-28.08,37.66-45.22,10.42-17.15,20.42-34.75,35.03-47.97,16.76-15.16,39.42-23.34,61.99-23.34,10.23,0,20.45,1.68,30.09,5.15l.34-.94c-9.76-3.51-20.09-5.21-30.43-5.21-22.81,0-45.7,8.26-62.66,23.6-14.77,13.37-24.81,31.06-35.22,48.19-10.41,17.14-21.19,33.71-37.37,44.92-18.4,12.76-41.2,16.63-63.98,16.63-6.09,0-12.18-.28-18.18-.73-22.11-1.68-44.31-5.46-66.47-5.46-6.35,0-12.7.31-19.05,1.07-14.25,1.71-28.73,6.3-40.99,13.8-12.26,7.5-22.3,17.94-27.63,31.33-3.23,8.12-4.5,16.67-4.5,25.32,0,13.12,2.92,26.52,6.4,39.21l.97-.26h0Z"/><path class="cls-10" d="m272.83,471.14c-3.24-11.84-5.95-24.29-5.95-36.42,0-8.01,1.18-15.87,4.14-23.33,4.89-12.3,14.12-21.91,25.45-28.84,11.33-6.94,24.75-11.19,37.95-12.78,5.89-.71,11.79-1,17.7-1,20.62,0,41.37,3.53,62.11,5.11,5.63.43,11.35.69,17.08.69,21.42,0,42.95-3.63,60.41-15.73,15.34-10.64,25.49-26.28,35.24-42.32,9.75-16.05,19.1-32.51,32.77-44.87,15.67-14.18,36.86-21.83,57.97-21.83,9.57,0,19.12,1.57,28.14,4.81l.34-.94c-9.13-3.28-18.8-4.87-28.48-4.87-21.35,0-42.77,7.73-58.64,22.09-13.83,12.51-23.21,29.06-32.96,45.09-9.74,16.03-19.82,31.53-34.95,42.01-17.21,11.93-38.53,15.55-59.84,15.55-5.7,0-11.39-.26-17-.68-20.68-1.57-41.45-5.11-62.19-5.11-5.94,0-11.89.29-17.82,1-13.33,1.6-26.88,5.89-38.36,12.92-11.47,7.02-20.88,16.79-25.86,29.33-3.02,7.61-4.21,15.6-4.21,23.7,0,12.28,2.73,24.82,5.98,36.69l.96-.26h0Z"/><path class="cls-10" d="m419.95-271.79c1.29,9.13,5.95,17.14,12.42,23.65,6.47,6.51,14.76,11.54,23.34,14.75,17.14,6.41,35.69,7.19,53.62,10.03,17.92,2.84,36.42,8.38,48.59,21.65,10.83,11.8,14.68,26.9,16.23,43.13,1.56,16.22.81,33.54,2.52,49.68,5.19,48.88,38.17,93.8,83.25,113.4l.4-.92c-44.73-19.44-77.51-64.09-82.65-112.59-1.7-16.04-.96-33.35-2.52-49.67-1.56-16.31-5.45-31.67-16.49-43.71-12.43-13.54-31.16-19.1-49.17-21.96-18-2.85-36.49-3.64-53.42-9.98-8.46-3.16-16.62-8.13-22.98-14.52-6.36-6.39-10.89-14.21-12.14-23.08l-.99.14Z"/><path class="cls-10" d="m410.58-263.66c1.29,9.13,5.95,17.14,12.42,23.65,6.47,6.51,14.76,11.54,23.34,14.75,17.14,6.41,35.69,7.19,53.62,10.03,17.92,2.84,36.43,8.38,48.59,21.65,10.83,11.8,14.68,26.9,16.23,43.13,1.56,16.22.81,33.54,2.52,49.68,5.19,48.88,38.17,93.8,83.25,113.4l.4-.92c-44.73-19.44-77.51-64.09-82.65-112.59-1.7-16.04-.96-33.35-2.52-49.67-1.56-16.31-5.45-31.67-16.49-43.71-12.43-13.54-31.16-19.1-49.17-21.96-18-2.85-36.49-3.64-53.42-9.98-8.46-3.16-16.62-8.13-22.98-14.52-6.35-6.39-10.89-14.21-12.14-23.08l-.99.14h0Z"/></g></g></g></g></g></g></svg>