<?xml version="1.0" encoding="UTF-8"?><svg id="Calque_2" xmlns="http://www.w3.org/2000/svg" xmlns:xlink="http://www.w3.org/1999/xlink" viewBox="0 0 432.85 306.14"><defs><style>.cls-1,.cls-2,.cls-3,.cls-4,.cls-5,.cls-6,.cls-7{fill:none;}.cls-2{clip-path:url(#clippath-3);}.cls-3{clip-path:url(#clippath-4);}.cls-4{clip-path:url(#clippath-2);}.cls-5{clip-path:url(#clippath-1);}.cls-8{fill:#0081c4;}.cls-9{fill:#0080a3;}.cls-10{fill:#0999ac;}.cls-11{fill:#0c99ab;}.cls-6{clip-path:url(#clippath);}.cls-7{opacity:.14;}</style><clipPath id="clippath"><rect class="cls-1" width="432.85" height="306.14"/></clipPath><clipPath id="clippath-1"><rect class="cls-1" y="0" width="432.85" height="306.14"/></clipPath><clipPath id="clippath-2"><rect class="cls-1" x="-2.55" y="-1.99" width="437.96" height="308.41"/></clipPath><clipPath id="clippath-3"><rect class="cls-1" y="0" width="432.85" height="306.14"/></clipPath><clipPath id="clippath-4"><rect class="cls-1" y="0" width="432.85" height="306.14"/></clipPath></defs><g id="Calque_11"><g class="cls-6"><g class="cls-5"><g class="cls-7"><g class="cls-4"><g class="cls-2"><path class="cls-8" d="m311.43,230.04c14.11,0,25.55,11.44,25.55,25.55s-11.44,25.55-25.55,25.55-25.55-11.44-25.55-25.55,11.44-25.55,25.55-25.55"/><path class="cls-11" d="m9.93,169.44c4.84,0,8.77,3.93,8.77,8.77s-3.93,8.77-8.77,8.77-8.77-3.93-8.77-8.77,3.93-8.77,8.77-8.77"/><path class="cls-9" d="m384.82,70.72c2.42,0,4.39,1.96,4.39,4.39s-1.96,4.39-4.39,4.39-4.39-1.96-4.39-4.39,1.96-4.39,4.39-4.39"/></g><g class="cls-3"><path class="cls-9" d="m391.43,381.15h-.12c-31.01,0-61.75-14.3-81.71-38.02-17.35-20.6-26.31-46.99-41.27-69.58-6.7-10.11-15.47-19.67-25.52-26.71-10.04-7.04-21.38-11.56-33.19-11.56-2.77,0-5.57.25-8.39.77-18.4,3.43-32.97,18.07-41.58,34.6-8.61,16.52-12.33,35.01-16.92,52.98-4.59,17.97-10.41,36.16-22.24,50.33-13.3,15.95-33.99,25.39-54.73,25.39-2.62,0-5.23-.15-7.84-.46l-.09.74c2.63.31,5.28.46,7.92.46,20.96,0,41.84-9.53,55.3-25.65,11.95-14.33,17.79-32.63,22.39-50.63,4.59-17.99,8.31-36.43,16.86-52.82,8.54-16.39,22.97-30.84,41.06-34.2,2.77-.52,5.52-.76,8.25-.76,11.62,0,22.81,4.45,32.76,11.42,9.95,6.97,18.66,16.47,25.32,26.51,14.9,22.47,23.86,48.89,41.32,69.65,20.12,23.9,51.05,38.29,82.29,38.29h.12s0-.75,0-.75Z"/><path class="cls-9" d="m381,382.29h-.11c-29.06,0-57.87-13.4-76.58-35.63-16.26-19.31-24.66-44.04-38.69-65.22-6.29-9.48-14.51-18.45-23.93-25.05-9.42-6.6-20.04-10.84-31.13-10.84-2.6,0-5.23.23-7.87.73-17.26,3.22-30.92,16.95-39,32.44-8.07,15.49-11.56,32.83-15.86,49.67-4.3,16.84-9.76,33.89-20.84,47.17-12.47,14.94-31.85,23.79-51.28,23.79-2.45,0-4.9-.14-7.34-.43l-.09.74c2.47.29,4.95.43,7.43.43,19.65,0,39.24-8.93,51.86-24.06,11.21-13.43,16.68-30.6,20.99-47.47,4.31-16.87,7.79-34.15,15.8-49.51,8-15.36,21.53-28.9,38.47-32.05,2.59-.48,5.17-.71,7.73-.71,10.89,0,21.37,4.17,30.7,10.7,9.33,6.53,17.49,15.43,23.73,24.85,13.96,21.06,22.37,45.83,38.74,65.29,18.86,22.41,47.87,35.9,77.16,35.9h.12v-.75Z"/><path class="cls-9" d="m370.56,383.43h-.11c-27.11,0-53.99-12.5-71.45-33.25-15.17-18.01-23.01-41.1-36.1-60.86-5.87-8.85-13.54-17.22-22.34-23.38-8.79-6.16-18.71-10.12-29.06-10.12-2.43,0-4.88.22-7.34.68-16.12,3.01-28.87,15.83-36.41,30.29-7.54,14.46-10.79,30.64-14.8,46.36-4.01,15.71-9.11,31.63-19.45,44.01-11.63,13.94-29.72,22.19-47.84,22.19-2.29,0-4.57-.13-6.85-.4l-.09.74c2.3.27,4.62.4,6.94.4,18.35,0,36.63-8.34,48.42-22.46,10.46-12.54,15.57-28.57,19.6-44.31,4.02-15.74,7.27-31.86,14.74-46.19,7.47-14.33,20.09-26.96,35.88-29.9,2.42-.45,4.82-.66,7.21-.66,10.15,0,19.93,3.89,28.63,9.99,8.7,6.1,16.32,14.4,22.14,23.18,13.03,19.65,20.87,42.77,36.15,60.93,17.61,20.92,44.68,33.51,72.02,33.51h.11s0-.75,0-.75Z"/><path class="cls-9" d="m360.12,384.57h-.1c-25.16,0-50.11-11.61-66.32-30.86-14.08-16.72-21.36-38.15-33.52-56.51-5.45-8.22-12.58-15.99-20.74-21.72-8.17-5.72-17.38-9.4-27-9.4-2.26,0-4.53.2-6.82.63-14.98,2.8-26.82,14.71-33.83,28.14-7,13.43-10.02,28.46-13.75,43.04-3.73,14.59-8.46,29.36-18.05,40.85-10.79,12.94-27.58,20.6-44.4,20.59-2.12,0-4.25-.12-6.36-.37l-.09.74c2.14.25,4.29.38,6.45.38,17.04,0,34.03-7.75,44.97-20.86,9.72-11.65,14.47-26.53,18.2-41.15,3.73-14.62,6.75-29.58,13.68-42.88,6.93-13.3,18.64-25.02,33.3-27.75,2.24-.42,4.48-.62,6.69-.62,9.42,0,18.49,3.61,26.57,9.27,8.07,5.66,15.15,13.36,20.55,21.52,12.09,18.24,19.38,39.71,33.57,56.58,16.36,19.43,41.5,31.12,66.89,31.12h.1s0-.75,0-.75Z"/><path class="cls-9" d="m349.68,385.71h-.09c-23.22,0-46.24-10.71-61.18-28.47-12.99-15.42-19.71-35.2-30.93-52.15-5.03-7.59-11.61-14.76-19.15-20.05-7.54-5.28-16.05-8.68-24.93-8.68-2.08,0-4.19.19-6.3.58-13.84,2.58-24.77,13.58-31.24,25.98-6.46,12.4-9.25,26.27-12.69,39.73-3.44,13.46-7.8,27.09-16.65,37.69-9.95,11.93-25.44,19-40.95,19-1.96,0-3.92-.11-5.86-.34l-.09.74c1.98.23,3.97.35,5.95.35,15.74,0,31.42-7.15,41.53-19.27,8.97-10.76,13.36-24.5,16.8-37.99,3.45-13.49,6.23-27.3,12.63-39.57,6.39-12.27,17.2-23.08,30.71-25.59,2.07-.39,4.13-.57,6.17-.57,8.69,0,17.05,3.33,24.5,8.55,7.45,5.22,13.97,12.33,18.96,19.85,11.16,16.83,17.88,36.64,30.98,52.22,15.1,17.94,38.31,28.73,61.76,28.74h.09v-.75Z"/><path class="cls-10" d="m228.14-56.76c3.1,11.32,5.69,23.25,5.69,34.87,0,7.67-1.13,15.2-3.97,22.35-4.69,11.79-13.53,20.99-24.39,27.64-10.85,6.64-23.7,10.72-36.34,12.24-5.64.68-11.29.95-16.95.95-19.74,0-39.58-3.38-59.41-4.88-5.39-.41-10.85-.66-16.33-.66-20.47,0-41.05,3.47-57.72,15.03-14.65,10.16-24.35,25.1-33.67,40.44-9.32,15.35-18.27,31.1-31.36,42.94-15.01,13.58-35.3,20.9-55.51,20.9-9.16,0-18.31-1.5-26.95-4.61l-.25.71c8.72,3.14,17.95,4.65,27.2,4.65,20.4,0,40.86-7.38,56.02-21.1,13.21-11.95,22.18-27.77,31.5-43.1,9.32-15.33,18.97-30.17,33.46-40.22,16.48-11.43,36.9-14.89,57.29-14.89,5.45,0,10.9.25,16.27.66,19.79,1.5,39.65,4.89,59.47,4.89,5.68,0,11.36-.28,17.04-.96,12.74-1.53,25.68-5.63,36.64-12.34,10.96-6.71,19.93-16.03,24.69-28,2.89-7.26,4.02-14.89,4.02-22.63,0-11.73-2.61-23.71-5.72-35.06l-.72.2h0Z"/><path class="cls-10" d="m208.83-56.76c2.94,10.71,5.39,21.99,5.39,32.98,0,7.25-1.07,14.37-3.75,21.14-4.43,11.15-12.8,19.85-23.06,26.14-10.26,6.28-22.41,10.14-34.37,11.57-5.33.64-10.68.9-16.03.9-18.67,0-37.44-3.19-56.2-4.62-5.1-.39-10.27-.62-15.45-.62-19.37,0-38.84,3.28-54.61,14.22-13.86,9.61-23.04,23.75-31.86,38.26-8.82,14.52-17.29,29.42-29.66,40.61-14.2,12.84-33.38,19.77-52.5,19.77-8.67,0-17.32-1.42-25.48-4.36l-.25.71c8.25,2.97,16.99,4.4,25.74,4.4,19.3,0,38.66-6.99,53.01-19.96,12.5-11.31,20.99-26.28,29.8-40.78,8.81-14.51,17.94-28.54,31.65-38.04,15.59-10.81,34.9-14.09,54.18-14.09,5.16,0,10.31.23,15.39.62,18.72,1.42,37.51,4.62,56.26,4.62,5.38,0,10.75-.26,16.12-.91,12.05-1.45,24.3-5.33,34.67-11.68,10.37-6.35,18.86-15.17,23.37-26.5,2.73-6.87,3.81-14.09,3.81-21.42,0-11.1-2.47-22.44-5.41-33.18l-.72.2h0Z"/><path class="cls-10" d="m189.53-56.76c2.77,10.1,5.08,20.73,5.08,31.09,0,6.83-1,13.55-3.54,19.92-4.18,10.5-12.06,18.71-21.74,24.63-9.67,5.92-21.13,9.55-32.4,10.91-5.03.6-10.06.85-15.11.85-17.6,0-35.3-3.01-52.99-4.36-4.8-.37-9.68-.59-14.57-.59-18.26,0-36.63,3.1-51.51,13.41-13.07,9.07-21.73,22.4-30.05,36.09-8.32,13.69-16.3,27.74-27.97,38.29-13.38,12.11-31.47,18.64-49.49,18.63-8.17,0-16.32-1.34-24.02-4.11l-.25.71c7.78,2.8,16.02,4.15,24.28,4.15,18.2,0,36.46-6.59,49.99-18.83,11.78-10.66,19.79-24.78,28.1-38.45,8.31-13.68,16.92-26.91,29.83-35.86,14.69-10.19,32.89-13.28,51.08-13.28,4.86,0,9.72.22,14.51.58,17.65,1.34,35.36,4.36,53.05,4.36,5.07,0,10.14-.25,15.2-.86,11.37-1.37,22.92-5.03,32.7-11.01,9.78-5.99,17.79-14.31,22.04-24.99,2.58-6.48,3.59-13.29,3.59-20.2,0-10.47-2.33-21.16-5.1-31.29l-.72.2h0Z"/><path class="cls-10" d="m170.22-56.76c2.6,9.49,4.77,19.47,4.77,29.2,0,6.42-.94,12.72-3.32,18.71-3.92,9.86-11.33,17.57-20.41,23.13-9.08,5.56-19.84,8.97-30.43,10.24-4.72.57-9.45.8-14.19.8-16.53,0-33.15-2.83-49.78-4.09-4.51-.34-9.1-.55-13.69-.55-17.16,0-34.41,2.91-48.4,12.6-12.29,8.52-20.42,21.05-28.23,33.91-7.81,12.86-15.31,26.05-26.27,35.96-12.56,11.37-29.55,17.5-46.48,17.5-7.67,0-15.33-1.26-22.56-3.86l-.25.71c7.31,2.63,15.06,3.9,22.81,3.9,17.11,0,34.26-6.19,46.98-17.69,11.08-10.02,18.6-23.29,26.41-36.13,7.8-12.85,15.89-25.27,28.02-33.68,13.8-9.57,30.89-12.47,47.97-12.47,4.57,0,9.13.21,13.63.55,16.58,1.26,33.22,4.09,49.83,4.09,4.76,0,9.53-.23,14.28-.8,10.68-1.28,21.54-4.72,30.73-10.35,9.19-5.63,16.72-13.45,20.72-23.49,2.42-6.09,3.38-12.49,3.38-18.99,0-9.84-2.19-19.88-4.8-29.4l-.72.2h0Z"/><path class="cls-10" d="m150.92-56.76c2.43,8.87,4.46,18.21,4.46,27.31,0,6-.88,11.9-3.11,17.49-3.67,9.22-10.59,16.43-19.08,21.63-8.49,5.2-18.56,8.39-28.46,9.58-4.42.53-8.84.75-13.27.75-15.46,0-31.01-2.64-46.57-3.83-4.22-.32-8.51-.52-12.81-.52-16.06,0-32.2,2.72-45.29,11.79-11.5,7.97-19.11,19.7-26.42,31.73-7.31,12.03-14.32,24.37-24.57,33.64-11.75,10.63-27.64,16.37-43.46,16.37-7.18,0-14.34-1.18-21.1-3.61l-.25.71c6.85,2.46,14.09,3.65,21.35,3.65,16.01,0,32.06-5.79,43.97-16.56,10.37-9.38,17.41-21.79,24.71-33.81,7.3-12.02,14.86-23.64,26.21-31.5C.12,19.12,16.1,16.41,32.08,16.41c4.27,0,8.54.19,12.75.51,15.51,1.18,31.08,3.83,46.62,3.83,4.46,0,8.91-.22,13.36-.75,10-1.2,20.16-4.42,28.76-9.69,8.6-5.27,15.65-12.59,19.39-21.99,2.27-5.7,3.16-11.7,3.16-17.77,0-9.21-2.05-18.61-4.49-27.51l-.72.2h0Z"/><path class="cls-10" d="m463.87,222.84c.74-2.57,1.08-5.17,1.08-7.77,0-10.88-5.94-21.67-13.83-29.44-9.78-9.62-22.24-15.82-33.65-23.24-11.41-7.42-22.38-16.86-26.66-29.66-1.44-4.29-2.05-8.6-2.05-12.92,0-9.31,2.85-18.71,6.48-28.12,3.63-9.41,8.02-18.84,11.07-28.24,3.3-10.16,4.89-20.8,4.89-31.46,0-26.12-9.59-52.31-27.26-71.62l-.55.51c17.54,19.16,27.06,45.18,27.06,71.11,0,10.58-1.59,21.15-4.86,31.23-3.03,9.34-7.42,18.75-11.06,28.2-3.64,9.44-6.53,18.92-6.53,28.39,0,4.39.62,8.78,2.09,13.16,4.37,13.07,15.5,22.6,26.96,30.05,11.46,7.45,23.87,13.64,33.53,23.15,7.79,7.66,13.61,18.31,13.61,28.91,0,2.54-.33,5.07-1.05,7.57l.72.21Z"/><path class="cls-10" d="m472.76,220.13c.74-2.57,1.08-5.17,1.08-7.77,0-10.88-5.94-21.67-13.83-29.44-9.78-9.62-22.24-15.82-33.65-23.24-11.41-7.42-22.38-16.86-26.66-29.66-1.44-4.29-2.05-8.6-2.05-12.92,0-9.31,2.85-18.71,6.48-28.12,3.63-9.41,8.02-18.84,11.07-28.24,3.3-10.16,4.89-20.8,4.89-31.46,0-26.12-9.59-52.31-27.26-71.62l-.55.51c17.54,19.16,27.06,45.18,27.06,71.11,0,10.58-1.59,21.15-4.86,31.23-3.03,9.34-7.42,18.75-11.06,28.2-3.64,9.44-6.53,18.92-6.53,28.39,0,4.39.62,8.78,2.09,13.16,4.37,13.07,15.5,22.6,26.96,30.05,11.46,7.45,23.87,13.64,33.53,23.15,7.79,7.66,13.61,18.31,13.61,28.91,0,2.54-.33,5.07-1.05,7.57l.72.21Z"/><path class="cls-10" d="m481.66,217.42c.74-2.57,1.08-5.17,1.08-7.77,0-10.88-5.94-21.67-13.83-29.44-9.78-9.62-22.24-15.82-33.65-23.24-11.41-7.42-22.38-16.86-26.66-29.66-1.44-4.29-2.05-8.6-2.05-12.92,0-9.31,2.85-18.71,6.48-28.12,3.63-9.41,8.02-18.84,11.07-28.24,3.3-10.16,4.89-20.8,4.89-31.46,0-26.12-9.59-52.31-27.26-71.62l-.55.51c17.54,19.16,27.06,45.18,27.06,71.11,0,10.58-1.59,21.15-4.86,31.23-3.03,9.34-7.42,18.75-11.06,28.2-3.64,9.44-6.53,18.92-6.53,28.39,0,4.39.62,8.78,2.09,13.16,4.37,13.07,15.5,22.6,26.96,30.05,11.46,7.45,23.87,13.64,33.53,23.15,7.79,7.66,13.61,18.31,13.61,28.91,0,2.54-.33,5.07-1.05,7.57l.72.21Z"/><path class="cls-10" d="m490.55,214.72c.74-2.57,1.08-5.17,1.08-7.77,0-10.88-5.94-21.67-13.83-29.44-9.78-9.62-22.24-15.82-33.65-23.24-11.41-7.42-22.38-16.86-26.66-29.66-1.44-4.29-2.05-8.6-2.05-12.92,0-9.31,2.85-18.71,6.48-28.12,3.63-9.41,8.02-18.84,11.07-28.24,3.3-10.16,4.89-20.8,4.89-31.46,0-26.12-9.59-52.31-27.26-71.62l-.55.51c17.54,19.16,27.06,45.18,27.06,71.11,0,10.58-1.59,21.15-4.86,31.23-3.03,9.34-7.42,18.75-11.06,28.2-3.64,9.44-6.53,18.92-6.53,28.39,0,4.39.62,8.78,2.09,13.16,4.37,13.07,15.5,22.6,26.96,30.05,11.46,7.45,23.87,13.64,33.53,23.15,7.79,7.66,13.61,18.31,13.61,28.91,0,2.54-.33,5.07-1.05,7.57l.72.21Z"/><path class="cls-10" d="m26.57,512.45c-.96-6.85-4.46-12.85-9.31-17.73-4.85-4.88-11.06-8.65-17.5-11.06-12.85-4.8-26.76-5.39-40.2-7.52-13.44-2.13-27.31-6.28-36.43-16.23-8.12-8.85-11.01-20.17-12.17-32.34-1.17-12.16-.6-25.14-1.89-37.25-3.89-36.65-28.62-70.33-62.42-85.03l-.3.69c33.54,14.58,58.11,48.05,61.97,84.42,1.28,12.03.72,25,1.89,37.24,1.17,12.23,4.08,23.74,12.37,32.77,9.32,10.15,23.36,14.32,36.86,16.46,13.5,2.14,27.36,2.73,40.05,7.48,6.34,2.37,12.46,6.09,17.23,10.89,4.76,4.79,8.17,10.65,9.1,17.31l.74-.1Z"/><path class="cls-10" d="m33.59,506.36c-.96-6.85-4.46-12.85-9.31-17.73-4.85-4.88-11.06-8.65-17.5-11.06-12.85-4.8-26.76-5.39-40.2-7.52-13.44-2.13-27.31-6.28-36.43-16.23-8.12-8.85-11.01-20.17-12.17-32.34-1.17-12.16-.61-25.14-1.89-37.25-3.89-36.65-28.62-70.33-62.42-85.03l-.3.69c33.54,14.58,58.11,48.05,61.97,84.42,1.28,12.03.72,25,1.89,37.24,1.17,12.23,4.08,23.74,12.37,32.77,9.32,10.15,23.36,14.32,36.86,16.46,13.5,2.14,27.36,2.73,40.05,7.48,6.34,2.37,12.46,6.09,17.23,10.89,4.76,4.79,8.17,10.65,9.1,17.31l.74-.1Z"/><path class="cls-10" d="m40.61,500.27c-.96-6.85-4.46-12.85-9.31-17.73-4.85-4.88-11.06-8.65-17.5-11.06-12.85-4.8-26.76-5.39-40.2-7.52-13.44-2.13-27.31-6.28-36.43-16.23-8.12-8.85-11.01-20.17-12.17-32.34-1.17-12.16-.61-25.14-1.89-37.25-3.89-36.65-28.62-70.33-62.42-85.03l-.3.69c33.54,14.58,58.11,48.05,61.97,84.42,1.28,12.03.72,25,1.89,37.24,1.17,12.23,4.08,23.74,12.37,32.77,9.32,10.15,23.36,14.32,36.86,16.46,13.5,2.14,27.36,2.73,40.05,7.48,6.34,2.37,12.46,6.09,17.23,10.89,4.76,4.79,8.17,10.65,9.1,17.31l.74-.1Z"/><path class="cls-10" d="m47.63,494.17c-.96-6.85-4.46-12.85-9.31-17.73-4.85-4.88-11.06-8.65-17.5-11.06-12.85-4.8-26.76-5.39-40.2-7.52-13.44-2.13-27.31-6.28-36.43-16.23-8.12-8.85-11.01-20.17-12.17-32.34-1.17-12.16-.61-25.14-1.89-37.25-3.89-36.65-28.62-70.33-62.42-85.03l-.3.69c33.54,14.58,58.11,48.05,61.97,84.42,1.28,12.03.72,25,1.89,37.24,1.17,12.23,4.08,23.74,12.37,32.77,9.32,10.15,23.36,14.32,36.86,16.46,13.5,2.14,27.36,2.73,40.05,7.48,6.34,2.37,12.46,6.09,17.23,10.89,4.76,4.79,8.16,10.65,9.1,17.31l.74-.1h0Z"/></g></g></g></g></g></g></svg>