<?xml version="1.0" encoding="UTF-8"?><svg id="Calque_2" xmlns="http://www.w3.org/2000/svg" viewBox="0 0 586.82 517.92"><defs><style>.cls-1{fill:#fff;}.cls-2{fill:none;opacity:.14;}</style></defs><g id="Calque_2-2"><g class="cls-2"><path class="cls-1" d="m163.88,256.92c-12.83,0-23.24-10.4-23.24-23.24s10.4-23.24,23.24-23.24,23.24,10.4,23.24,23.24-10.4,23.24-23.24,23.24"/><path class="cls-1" d="m438.06,312.04c-4.41,0-7.98-3.57-7.98-7.98s3.57-7.98,7.98-7.98,7.98,3.57,7.98,7.98-3.57,7.98-7.98,7.98"/><path class="cls-1" d="m97.14,401.81c-2.2,0-3.99-1.79-3.99-3.99s1.79-3.99,3.99-3.99,3.99,1.79,3.99,3.99-1.79,3.99-3.99,3.99"/><path class="cls-1" d="m475.95,277.08c-2.2,0-3.99-1.79-3.99-3.99s1.79-3.99,3.99-3.99,3.99,1.79,3.99,3.99-1.79,3.99-3.99,3.99"/><path class="cls-1" d="m91.12,119.5h.11c28.2,0,56.15,13,74.31,34.58,15.78,18.73,23.93,42.73,37.53,63.27,6.1,9.2,14.07,17.89,23.2,24.29,9.13,6.4,19.44,10.51,30.18,10.51,2.52,0,5.07-.23,7.63-.7,16.73-3.12,29.98-16.44,37.82-31.46,7.83-15.02,11.21-31.84,15.38-48.18,4.17-16.34,9.47-32.88,20.23-45.77,12.1-14.5,30.91-23.09,49.77-23.09,2.38,0,4.76.14,7.13.42l.08-.68c-2.39-.28-4.8-.42-7.21-.42-19.06,0-38.05,8.66-50.29,23.33-10.87,13.03-16.18,29.68-20.36,46.04-4.18,16.36-7.56,33.13-15.33,48.03-7.77,14.9-20.89,28.05-37.34,31.11-2.52.47-5.02.69-7.5.69-10.57,0-20.74-4.05-29.79-10.39-9.05-6.34-16.97-14.97-23.03-24.11-13.55-20.43-21.7-44.46-37.58-63.34-18.3-21.73-46.42-34.82-74.83-34.82h-.11s0,.68,0,.68h0Z"/><path class="cls-1" d="m100.61,118.47h.1c26.43,0,52.63,12.19,69.64,32.41,14.78,17.56,22.43,40.05,35.18,59.31,5.72,8.62,13.19,16.77,21.76,22.78,8.57,6,18.23,9.86,28.31,9.86,2.37,0,4.75-.21,7.15-.66,15.7-2.93,28.12-15.42,35.46-29.5,7.34-14.08,10.51-29.85,14.42-45.17,3.91-15.31,8.88-30.82,18.96-42.9,11.34-13.59,28.97-21.63,46.64-21.63,2.23,0,4.46.13,6.68.39l.08-.68c-2.25-.26-4.5-.39-6.76-.39-17.87,0-35.68,8.13-47.16,21.88-10.19,12.22-15.17,27.83-19.09,43.17-3.92,15.34-7.08,31.05-14.37,45.02-7.28,13.97-19.58,26.28-34.98,29.15-2.36.44-4.7.65-7.03.65-9.9,0-19.43-3.79-27.92-9.73-8.48-5.94-15.91-14.03-21.58-22.6-12.7-19.15-20.34-41.68-35.23-59.37-17.15-20.38-43.53-32.65-70.16-32.65h-.1s0,.68,0,.68h0Z"/><path class="cls-1" d="m110.1,117.43h.1c24.65,0,49.1,11.37,64.98,30.23,13.79,16.38,20.93,37.37,32.83,55.35,5.34,8.05,12.31,15.66,20.31,21.26,8,5.6,17.02,9.2,26.43,9.2,2.21,0,4.44-.2,6.68-.62,14.66-2.74,26.26-14.39,33.11-27.55,6.85-13.15,9.81-27.87,13.46-42.16,3.65-14.29,8.28-28.76,17.69-40.03,10.57-12.68,27.02-20.18,43.51-20.18,2.08,0,4.16.12,6.23.36l.08-.68c-2.1-.25-4.2-.37-6.31-.37-16.69,0-33.31,7.59-44.03,20.43-9.51,11.41-14.16,25.98-17.82,40.29-3.66,14.31-6.61,28.98-13.41,42.01-6.79,13.03-18.27,24.52-32.63,27.19-2.2.41-4.39.6-6.55.6-9.23,0-18.12-3.54-26.04-9.08-7.91-5.54-14.84-13.09-20.13-21.08-11.85-17.87-18.98-38.89-32.88-55.41-16.01-19.02-40.63-30.47-65.5-30.48h-.1s0,.68,0,.68h0Z"/><path class="cls-1" d="m119.59,116.4h.09c22.88,0,45.57,10.55,60.31,28.06,12.8,15.2,19.42,34.69,30.48,51.39,4.96,7.48,11.44,14.54,18.87,19.75,7.43,5.2,15.81,8.55,24.55,8.55,2.05,0,4.12-.18,6.21-.57,13.62-2.54,24.39-13.37,30.76-25.59,6.37-12.21,9.11-25.88,12.5-39.15,3.39-13.27,7.69-26.7,16.41-37.15,9.81-11.76,25.08-18.73,40.38-18.73,1.93,0,3.86.11,5.78.34l.08-.68c-1.95-.23-3.9-.34-5.86-.34-15.5,0-30.95,7.05-40.9,18.97-8.84,10.59-13.15,24.13-16.55,37.42-3.39,13.29-6.14,26.9-12.44,39-6.3,12.09-16.95,22.75-30.28,25.23-2.04.38-4.07.56-6.08.56-8.57,0-16.82-3.28-24.16-8.43-7.34-5.14-13.77-12.15-18.69-19.57-11-16.59-17.62-36.11-30.53-51.45-14.87-17.67-37.74-28.3-60.83-28.3h-.09s0,.68,0,.68h0Z"/><path class="cls-1" d="m129.09,115.36h.08c21.11,0,42.05,9.74,55.64,25.89,11.81,14.03,17.92,32.02,28.13,47.43,4.58,6.9,10.56,13.43,17.42,18.23,6.86,4.8,14.6,7.89,22.68,7.9,1.9,0,3.81-.17,5.73-.53,12.58-2.35,22.53-12.35,28.41-23.63,5.88-11.28,8.41-23.89,11.54-36.13,3.13-12.24,7.1-24.64,15.14-34.28,9.05-10.85,23.14-17.28,37.24-17.28,1.78,0,3.56.1,5.33.31l.08-.68c-1.8-.21-3.61-.32-5.41-.32-14.31,0-28.58,6.51-37.77,17.52-8.16,9.78-12.15,22.28-15.28,34.55-3.13,12.27-5.66,24.83-11.48,35.99-5.81,11.16-15.64,20.99-27.93,23.27-1.88.35-3.75.52-5.61.52-7.9,0-15.51-3.03-22.29-7.77-6.77-4.75-12.71-11.21-17.24-18.05-10.15-15.31-16.26-33.32-28.18-47.49-13.73-16.31-34.84-26.13-56.16-26.13h-.08s0,.68,0,.68h0Z"/><path class="cls-1" d="m239.62,517.74c-2.82-10.3-5.18-21.14-5.18-31.71,0-6.97,1.02-13.82,3.61-20.33,4.26-10.72,12.31-19.09,22.18-25.13,9.87-6.04,21.55-9.75,33.05-11.13,5.13-.62,10.27-.87,15.41-.87,17.95,0,35.99,3.07,54.03,4.44,4.9.37,9.87.6,14.85.6,18.62,0,37.33-3.16,52.49-13.67,13.32-9.24,22.14-22.83,30.62-36.78,8.48-13.96,16.62-28.28,28.52-39.05,13.65-12.35,32.1-19.01,50.49-19.01,8.33,0,16.65,1.37,24.51,4.19l.23-.64c-7.93-2.85-16.33-4.23-24.74-4.23-18.55,0-37.15,6.71-50.94,19.19-12.01,10.87-20.17,25.26-28.65,39.2-8.47,13.95-17.25,27.44-30.43,36.57-14.99,10.39-33.56,13.55-52.1,13.54-4.96,0-9.91-.22-14.8-.6-18-1.37-36.06-4.44-54.08-4.44-5.17,0-10.33.25-15.49.87-11.59,1.39-23.36,5.12-33.32,11.22-9.96,6.1-18.13,14.58-22.45,25.46-2.62,6.6-3.66,13.54-3.66,20.58,0,10.67,2.37,21.56,5.2,31.89l.66-.18h0Z"/><path class="cls-1" d="m257.17,517.74c-2.67-9.74-4.9-20-4.9-29.99,0-6.59.97-13.07,3.41-19.22,4.03-10.14,11.64-18.05,20.97-23.77,9.33-5.71,20.38-9.22,31.26-10.52,4.85-.58,9.71-.82,14.58-.82,16.98,0,34.04,2.9,51.11,4.2,4.63.35,9.34.57,14.05.57,17.61,0,35.32-2.99,49.66-12.93,12.61-8.74,20.95-21.6,28.97-34.8,8.02-13.2,15.72-26.75,26.98-36.93,12.91-11.68,30.36-17.98,47.75-17.98,7.88,0,15.75,1.29,23.17,3.96l.23-.64c-7.51-2.7-15.45-4.01-23.41-4.01-17.55,0-35.16,6.35-48.2,18.15-11.36,10.28-19.09,23.9-27.1,37.08-8.01,13.19-16.32,25.95-28.78,34.59-14.18,9.83-31.73,12.81-49.28,12.81-4.69,0-9.38-.21-14-.56-17.02-1.29-34.11-4.2-51.16-4.2-4.89,0-9.78.24-14.66.83-10.96,1.32-22.1,4.85-31.53,10.62-9.43,5.77-17.15,13.8-21.25,24.1-2.48,6.25-3.46,12.82-3.46,19.48,0,10.09,2.25,20.4,4.92,30.17l.66-.18h0Z"/><path class="cls-1" d="m274.73,517.74c-2.52-9.18-4.62-18.85-4.62-28.27,0-6.21.91-12.32,3.22-18.12,3.8-9.55,10.97-17.01,19.77-22.4,8.79-5.39,19.21-8.69,29.46-9.92,4.57-.55,9.15-.77,13.74-.77,16,0,32.1,2.74,48.19,3.96,4.37.33,8.81.53,13.25.53,16.61,0,33.31-2.82,46.84-12.2,11.89-8.24,19.76-20.37,27.32-32.82,7.56-12.45,14.82-25.22,25.43-34.82,12.17-11.01,28.62-16.95,45.01-16.95,7.43,0,14.85,1.22,21.85,3.74l.23-.64c-7.08-2.55-14.57-3.78-22.08-3.78-16.55,0-33.16,5.99-45.46,17.12-10.72,9.7-18,22.54-25.56,34.97-7.56,12.44-15.38,24.47-27.13,32.61-13.36,9.26-29.91,12.07-46.45,12.07-4.42,0-8.84-.2-13.19-.53-16.05-1.22-32.16-3.96-48.24-3.96-4.61,0-9.22.23-13.82.78-10.34,1.24-20.84,4.57-29.74,10.02-8.89,5.44-16.18,13.01-20.04,22.73-2.34,5.89-3.27,12.09-3.27,18.37,0,9.52,2.12,19.24,4.64,28.45l.66-.18h0Z"/><path class="cls-1" d="m292.29,517.74c-2.36-8.63-4.34-17.71-4.34-26.55,0-5.84.86-11.57,3.02-17.01,3.57-8.97,10.3-15.98,18.56-21.03,8.26-5.06,18.04-8.16,27.67-9.32,4.29-.52,8.6-.73,12.91-.73,15.03,0,30.15,2.57,45.27,3.72,4.1.31,8.27.5,12.45.5,15.61,0,31.3-2.65,44.01-11.46,11.17-7.75,18.57-19.14,25.68-30.84,7.1-11.7,13.92-23.69,23.89-32.71,11.43-10.34,26.87-15.92,42.27-15.91,6.98,0,13.94,1.14,20.52,3.51l.23-.64c-6.65-2.39-13.69-3.55-20.75-3.55-15.56,0-31.16,5.63-42.72,16.09-10.07,9.11-16.91,21.18-24.01,32.86-7.1,11.68-14.45,22.98-25.48,30.63-12.55,8.7-28.09,11.34-43.63,11.34-4.15,0-8.3-.19-12.39-.5-15.08-1.15-30.21-3.72-45.32-3.72-4.33,0-8.66.21-12.99.73-9.72,1.17-19.59,4.29-27.95,9.41-8.36,5.12-15.21,12.23-18.84,21.36-2.2,5.54-3.07,11.36-3.07,17.27,0,8.95,1.99,18.08,4.36,26.73l.66-.18h0Z"/><path class="cls-1" d="m309.85,517.74c-2.21-8.07-4.06-16.56-4.06-24.84,0-5.46.8-10.82,2.83-15.91,3.33-8.39,9.63-14.94,17.35-19.67,7.72-4.73,16.88-7.63,25.88-8.71,4.02-.48,8.04-.68,12.07-.68,14.06,0,28.2,2.4,42.35,3.48,3.84.29,7.74.47,11.65.47,14.6,0,29.29-2.48,41.19-10.73,10.46-7.25,17.38-17.92,24.03-28.85,6.65-10.94,13.03-22.16,22.34-30.59,10.69-9.67,25.13-14.88,39.53-14.88,6.53,0,13.04,1.07,19.19,3.28l.23-.64c-6.23-2.24-12.82-3.32-19.42-3.32-14.56,0-29.16,5.27-39.98,15.06-9.43,8.53-15.83,19.82-22.47,30.74-6.64,10.93-13.52,21.5-23.83,28.65-11.73,8.13-26.27,10.61-40.8,10.6-3.88,0-7.77-.18-11.59-.47-14.1-1.07-28.26-3.48-42.4-3.48-4.05,0-8.11.2-12.15.68-9.09,1.09-18.33,4.02-26.15,8.81-7.82,4.79-14.23,11.45-17.63,20-2.06,5.19-2.87,10.64-2.87,16.16,0,8.37,1.86,16.92,4.08,25.02l.66-.18h0Z"/><path class="cls-1" d="m25.25,263.48c-.67,2.33-.98,4.7-.98,7.07,0,9.89,5.4,19.7,12.58,26.77,8.89,8.75,20.23,14.39,30.6,21.14,10.37,6.74,20.35,15.34,24.24,26.98,1.31,3.9,1.86,7.82,1.86,11.75,0,8.47-2.6,17.01-5.9,25.57-3.3,8.56-7.3,17.13-10.07,25.68-3,9.24-4.45,18.92-4.45,28.61,0,23.75,8.72,47.57,24.79,65.13l.5-.46c-15.95-17.42-24.61-41.09-24.61-64.67,0-9.62,1.44-19.23,4.42-28.4,2.75-8.49,6.75-17.05,10.06-25.64,3.31-8.59,5.94-17.21,5.94-25.82,0-4-.57-7.99-1.9-11.97-3.98-11.88-14.1-20.55-24.52-27.33-10.42-6.77-21.71-12.4-30.49-21.05-7.08-6.97-12.38-16.65-12.38-26.29,0-2.31.3-4.61.95-6.88l-.66-.19h0Z"/><path class="cls-1" d="m17.16,265.94c-.67,2.33-.98,4.7-.98,7.07,0,9.89,5.4,19.7,12.58,26.77,8.89,8.75,20.23,14.39,30.6,21.14,10.37,6.74,20.35,15.34,24.24,26.97,1.31,3.9,1.86,7.82,1.86,11.75,0,8.47-2.6,17.01-5.9,25.57-3.3,8.56-7.3,17.13-10.07,25.68-3,9.24-4.45,18.92-4.45,28.61,0,23.75,8.72,47.57,24.79,65.13l.5-.46c-15.95-17.42-24.61-41.09-24.61-64.67,0-9.62,1.44-19.23,4.42-28.4,2.75-8.49,6.75-17.05,10.06-25.64,3.31-8.59,5.94-17.21,5.94-25.82,0-4-.57-7.99-1.9-11.97-3.98-11.88-14.1-20.55-24.52-27.33-10.42-6.77-21.71-12.4-30.49-21.05-7.08-6.97-12.38-16.65-12.38-26.29,0-2.31.3-4.61.95-6.88l-.66-.19h0Z"/><path class="cls-1" d="m9.07,268.4c-.67,2.33-.98,4.7-.98,7.07,0,9.89,5.4,19.7,12.58,26.77,8.89,8.75,20.23,14.39,30.6,21.14,10.37,6.75,20.35,15.34,24.24,26.98,1.31,3.9,1.86,7.82,1.86,11.75,0,8.47-2.6,17.01-5.9,25.57-3.3,8.56-7.3,17.13-10.07,25.68-3,9.24-4.45,18.92-4.45,28.61,0,23.75,8.72,47.57,24.79,65.13l.5-.46c-15.95-17.42-24.61-41.09-24.61-64.67,0-9.62,1.44-19.23,4.42-28.4,2.75-8.49,6.75-17.05,10.06-25.64,3.31-8.59,5.94-17.21,5.94-25.82,0-4-.57-7.99-1.9-11.97-3.98-11.88-14.1-20.55-24.52-27.33-10.42-6.77-21.71-12.4-30.49-21.05-7.08-6.97-12.38-16.65-12.38-26.29,0-2.31.3-4.61.95-6.88l-.66-.19h0Z"/><path class="cls-1" d="m.98,270.86C.31,273.19,0,275.56,0,277.93c0,9.89,5.4,19.7,12.58,26.77,8.89,8.75,20.23,14.39,30.6,21.14,10.37,6.75,20.35,15.34,24.24,26.98,1.31,3.9,1.86,7.82,1.86,11.75,0,8.47-2.6,17.01-5.9,25.57-3.3,8.56-7.3,17.13-10.07,25.68-3,9.24-4.45,18.92-4.45,28.61,0,23.75,8.72,47.57,24.79,65.13l.5-.46c-15.95-17.42-24.61-41.09-24.61-64.67,0-9.62,1.44-19.23,4.42-28.4,2.75-8.49,6.75-17.05,10.06-25.64,3.31-8.59,5.94-17.21,5.94-25.82,0-4-.57-7.99-1.9-11.97-3.98-11.88-14.1-20.55-24.52-27.33-10.42-6.77-21.71-12.4-30.49-21.05-7.08-6.97-12.38-16.65-12.38-26.29,0-2.31.3-4.61.95-6.88l-.66-.19h0Z"/><path class="cls-1" d="m422.93.1c.88,6.23,4.06,11.68,8.47,16.12,4.41,4.44,10.06,7.87,15.91,10.06,11.68,4.37,24.34,4.9,36.56,6.84,12.22,1.93,24.84,5.71,33.13,14.76,7.38,8.05,10.01,18.34,11.07,29.41,1.06,11.06.55,22.87,1.72,33.87,3.54,33.33,26.03,63.96,56.76,77.32l.27-.63c-30.5-13.26-52.85-43.7-56.36-76.77-1.16-10.94-.65-22.74-1.72-33.86-1.07-11.12-3.71-21.59-11.25-29.8-8.47-9.23-21.25-13.03-33.53-14.97-12.28-1.94-24.88-2.48-36.43-6.8-5.77-2.16-11.33-5.54-15.67-9.9-4.33-4.36-7.43-9.69-8.28-15.74l-.68.1h0Z"/><path class="cls-1" d="m416.54,5.64c.88,6.23,4.06,11.68,8.47,16.12,4.41,4.44,10.06,7.87,15.91,10.06,11.68,4.37,24.34,4.9,36.56,6.84,12.22,1.93,24.84,5.71,33.13,14.76,7.38,8.05,10.01,18.34,11.07,29.41,1.06,11.06.55,22.87,1.72,33.87,3.54,33.33,26.03,63.96,56.76,77.32l.27-.63c-30.5-13.26-52.85-43.7-56.36-76.77-1.16-10.94-.65-22.74-1.72-33.86-1.07-11.12-3.71-21.59-11.25-29.8-8.47-9.23-21.25-13.03-33.53-14.97-12.28-1.94-24.88-2.48-36.43-6.8-5.77-2.16-11.33-5.54-15.67-9.9-4.33-4.36-7.43-9.69-8.28-15.74l-.68.1h0Z"/><path class="cls-1" d="m410.16,11.18c.88,6.23,4.06,11.68,8.47,16.12,4.41,4.44,10.06,7.87,15.91,10.06,11.68,4.37,24.34,4.9,36.56,6.84,12.22,1.93,24.84,5.71,33.13,14.76,7.38,8.05,10.01,18.34,11.07,29.41,1.06,11.06.55,22.87,1.72,33.87,3.54,33.33,26.03,63.96,56.76,77.32l.27-.63c-30.5-13.26-52.85-43.7-56.36-76.77-1.16-10.94-.65-22.74-1.72-33.86-1.07-11.12-3.71-21.59-11.25-29.8-8.47-9.23-21.25-13.03-33.53-14.97-12.28-1.94-24.88-2.48-36.43-6.8-5.77-2.16-11.33-5.54-15.67-9.9-4.33-4.36-7.43-9.69-8.28-15.74l-.68.1h0Z"/><path class="cls-1" d="m403.77,16.72c.88,6.23,4.06,11.68,8.47,16.12,4.41,4.44,10.06,7.87,15.91,10.06,11.68,4.37,24.33,4.9,36.56,6.84,12.22,1.93,24.84,5.71,33.13,14.76,7.38,8.05,10.01,18.34,11.07,29.41,1.06,11.06.55,22.87,1.72,33.87h0c3.54,33.33,26.03,63.96,56.76,77.32l.27-.63c-30.5-13.26-52.85-43.7-56.36-76.77h0c-1.16-10.94-.65-22.74-1.72-33.86-1.07-11.12-3.71-21.59-11.25-29.8-8.47-9.23-21.25-13.02-33.52-14.97-12.28-1.94-24.88-2.48-36.43-6.8-5.77-2.16-11.33-5.54-15.67-9.9-4.33-4.36-7.43-9.69-8.28-15.74l-.68.1h0Z"/></g></g></svg>