<?xml version="1.0" encoding="UTF-8"?><svg id="Calque_2" xmlns="http://www.w3.org/2000/svg" xmlns:xlink="http://www.w3.org/1999/xlink" viewBox="0 0 540.81 369.15"><defs><style>.cls-1,.cls-2,.cls-3,.cls-4,.cls-5,.cls-6,.cls-7,.cls-8,.cls-9,.cls-10,.cls-11,.cls-12,.cls-13{fill:none;}.cls-2{opacity:.5;}.cls-3{clip-path:url(#clippath-8);}.cls-4{clip-path:url(#clippath-7);}.cls-5{clip-path:url(#clippath-6);}.cls-6{clip-path:url(#clippath-9);}.cls-7{clip-path:url(#clippath-5);}.cls-8{clip-path:url(#clippath-3);}.cls-9{clip-path:url(#clippath-4);}.cls-10{clip-path:url(#clippath-2);}.cls-11{clip-path:url(#clippath-1);}.cls-14{fill:#0081c4;}.cls-15{fill:#008eb5;}.cls-16{fill:#0080a3;}.cls-17{fill:#009aad;}.cls-18{fill:#d9d9d9;}.cls-19{fill:#0999ac;}.cls-20{fill:#0c99ab;}.cls-12{clip-path:url(#clippath-10);}.cls-13{clip-path:url(#clippath);}</style><clipPath id="clippath"><rect class="cls-1" x="387.32" y="15.44" width="137.72" height="139.93" transform="translate(-6.56 120.98) rotate(-15)"/></clipPath><clipPath id="clippath-1"><polygon class="cls-1" points="371.56 35.64 407.78 170.81 460 156.82 510.43 91.1 420.93 22.42 371.56 35.64"/></clipPath><clipPath id="clippath-2"><rect class="cls-1" x="202.58" y="109.84" width="30.1" height="18.92"/></clipPath><clipPath id="clippath-3"><rect class="cls-1" x="36.32" y="71.05" width="158.54" height="156.03"/></clipPath><clipPath id="clippath-4"><polygon class="cls-1" points="36.32 71.05 36.32 132.31 93.46 206.76 194.86 128.95 194.86 71.05 36.32 71.05"/></clipPath><clipPath id="clippath-5"><rect class="cls-1" x="45.21" y="102.42" width="10.64" height="10.32"/></clipPath><clipPath id="clippath-6"><rect class="cls-1" y="208.09" width="482.4" height="161.05"/></clipPath><clipPath id="clippath-7"><rect class="cls-1" y="208.09" width="482.4" height="161.05"/></clipPath><clipPath id="clippath-8"><rect class="cls-1" x="-2.85" y="205.88" width="488.09" height="163.58"/></clipPath><clipPath id="clippath-9"><rect class="cls-1" y="208.09" width="482.4" height="161.05"/></clipPath><clipPath id="clippath-10"><rect class="cls-1" y="208.09" width="482.4" height="161.05"/></clipPath></defs><g id="Calque_8"><g class="cls-13"><path class="cls-14" d="m385.14,137.4c5.44,4.18,6.47,11.97,2.29,17.41-4.18,5.44-11.97,6.47-17.41,2.29-5.44-4.18-6.47-11.97-2.29-17.41,4.18-5.44,11.97-6.47,17.41-2.29"/><path class="cls-20" d="m286.82,24.83c1.87,1.43,2.22,4.11.79,5.98-1.43,1.87-4.11,2.22-5.98.79-1.87-1.43-2.22-4.11-.79-5.98,1.43-1.87,4.11-2.22,5.98-.79"/><path class="cls-16" d="m460.58,97.69c.93.72,1.11,2.05.39,2.99-.72.93-2.05,1.11-2.99.39-.93-.72-1.11-2.05-.39-2.99.72-.93,2.05-1.11,2.99-.39"/></g><g class="cls-11"><path class="cls-14" d="m259.38,27.32c.93.72,1.11,2.05.39,2.99-.72.93-2.05,1.11-2.99.39-.93-.72-1.11-2.05-.39-2.99.72-.93,2.05-1.11,2.99-.39"/><path class="cls-16" d="m371.28,219.34l-.05-.04c-11.96-9.17-19.58-23.78-20.26-38.84-.59-13.08,3.76-25.9,4.67-39.04.41-5.88-.14-12.16-1.94-17.85-1.79-5.69-4.82-10.78-9.38-14.28-1.07-.82-2.22-1.55-3.46-2.18-8.11-4.12-18.06-2.79-26.27,1.04-8.21,3.82-15.11,9.85-22.2,15.42-7.08,5.57-14.72,10.86-23.47,12.83-9.85,2.21-20.62-.27-28.61-6.4-1.01-.77-1.97-1.61-2.89-2.5l-.25.26c.92.9,1.9,1.74,2.92,2.52,8.08,6.2,18.95,8.71,28.92,6.47,8.85-1.99,16.52-7.32,23.61-12.9,7.09-5.58,13.98-11.59,22.13-15.38,8.14-3.79,17.99-5.1,25.95-1.04,1.22.62,2.35,1.34,3.41,2.15,4.48,3.44,7.48,8.46,9.25,14.1,1.77,5.63,2.32,11.87,1.92,17.71-.9,13.07-5.27,25.91-4.67,39.08.69,15.17,8.36,29.87,20.4,39.11l.05.04.22-.29Z"/><path class="cls-16" d="m366.92,216.69l-.04-.03c-11.21-8.6-18.35-22.29-18.99-36.4-.56-12.25,3.52-24.28,4.38-36.6.38-5.52-.14-11.4-1.82-16.74-1.68-5.33-4.52-10.11-8.79-13.39-1-.77-2.08-1.46-3.25-2.05-7.61-3.87-16.94-2.61-24.64.97-7.7,3.58-14.17,9.24-20.81,14.46-6.64,5.22-13.79,10.18-21.99,12.02-9.23,2.07-19.32-.25-26.81-6-.95-.73-1.85-1.51-2.71-2.34l-.25.26c.87.84,1.78,1.63,2.74,2.37,7.58,5.81,17.77,8.16,27.11,6.07,8.3-1.86,15.49-6.86,22.14-12.09,6.65-5.23,13.11-10.86,20.74-14.41,7.63-3.55,16.85-4.77,24.32-.98,1.14.58,2.21,1.26,3.19,2.01,4.2,3.22,7.01,7.93,8.67,13.21,1.66,5.28,2.18,11.13,1.8,16.6-.85,12.25-4.94,24.29-4.38,36.64.64,14.22,7.84,28.01,19.13,36.67l.04.03.22-.29Z"/><path class="cls-16" d="m362.56,214.05l-.04-.03c-10.45-8.02-17.12-20.8-17.71-33.96-.52-11.43,3.29-22.66,4.09-34.15.36-5.15-.13-10.65-1.69-15.62-1.57-4.98-4.22-9.44-8.21-12.5-.94-.72-1.95-1.36-3.03-1.91-7.11-3.61-15.82-2.44-23,.91-7.18,3.35-13.23,8.62-19.42,13.49-6.2,4.87-12.87,9.5-20.52,11.22-8.61,1.93-18.03-.24-25.01-5.6-.88-.68-1.73-1.4-2.52-2.18l-.25.26c.81.79,1.66,1.52,2.56,2.21,7.08,5.43,16.59,7.62,25.31,5.66,7.75-1.74,14.46-6.41,20.67-11.29,6.21-4.88,12.23-10.14,19.35-13.45,7.12-3.32,15.72-4.45,22.68-.91,1.07.54,2.06,1.17,2.98,1.88,3.92,3,6.53,7.4,8.09,12.32,1.55,4.92,2.03,10.38,1.68,15.49-.79,11.43-4.61,22.67-4.09,34.19.6,13.28,7.31,26.14,17.86,34.23l.04.03.22-.29Z"/><path class="cls-16" d="m358.2,211.4l-.04-.03c-9.7-7.44-15.89-19.3-16.44-31.52-.48-10.61,3.05-21.03,3.79-31.71.33-4.78-.12-9.89-1.57-14.51-1.46-4.62-3.92-8.77-7.63-11.61-.87-.67-1.81-1.26-2.82-1.78-6.6-3.35-14.69-2.27-21.37.84-6.67,3.11-12.28,8.01-18.04,12.53-5.75,4.52-11.95,8.82-19.05,10.41-7.99,1.8-16.73-.22-23.21-5.2-.82-.63-1.6-1.3-2.34-2.02l-.25.26c.75.73,1.54,1.42,2.37,2.05,6.57,5.04,15.41,7.08,23.51,5.26,7.19-1.62,13.43-5.95,19.19-10.48,5.76-4.53,11.36-9.41,17.97-12.49,6.61-3.08,14.59-4.13,21.05-.85.99.5,1.91,1.09,2.76,1.74,3.63,2.79,6.06,6.86,7.5,11.43,1.44,4.57,1.89,9.63,1.56,14.38-.73,10.61-4.28,21.04-3.8,31.75.56,12.33,6.79,24.28,16.58,31.79l.04.03.22-.29Z"/><path class="cls-16" d="m353.84,208.75l-.04-.03c-8.95-6.87-14.66-17.81-15.17-29.08-.45-9.79,2.82-19.41,3.5-29.26.31-4.42-.11-9.13-1.45-13.4-1.34-4.27-3.62-8.1-7.05-10.73-.8-.62-1.67-1.17-2.6-1.64-6.1-3.1-13.57-2.09-19.73.78-6.16,2.87-11.34,7.39-16.65,11.57-5.31,4.17-11.02,8.14-17.57,9.61-7.37,1.66-15.43-.2-21.41-4.79-.76-.58-1.48-1.2-2.16-1.87l-.25.26c.69.67,1.43,1.31,2.19,1.89,6.07,4.66,14.23,6.54,21.71,4.86,6.64-1.49,12.4-5.49,17.72-9.68,5.32-4.18,10.48-8.68,16.58-11.52,6.1-2.84,13.46-3.81,19.42-.78.91.46,1.76,1,2.55,1.61,3.35,2.57,5.59,6.33,6.92,10.55,1.33,4.22,1.74,8.89,1.44,13.26-.68,9.79-3.95,19.42-3.5,29.3.52,11.38,6.27,22.42,15.31,29.35l.04.03.22-.29Z"/><path class="cls-19" d="m437.89,2.17c-2.15,5.28-4.68,10.65-8.12,15.13-2.27,2.96-4.93,5.53-8.15,7.44-5.29,3.16-11.43,4.09-17.58,3.44-6.15-.65-12.31-2.88-17.63-6.03-2.37-1.41-4.63-2.97-6.82-4.65-7.61-5.84-14.26-13.01-21.46-19.46-1.96-1.75-3.99-3.46-6.1-5.08-7.89-6.06-16.85-10.81-26.7-11.28-8.65-.42-16.82,2.47-24.95,5.63-8.14,3.16-16.25,6.58-24.8,7.28-9.81.8-19.8-2.38-27.59-8.37-3.53-2.71-6.62-6-9.03-9.75l-.31.2c2.43,3.79,5.55,7.11,9.11,9.84,7.86,6.03,17.94,9.24,27.84,8.44,8.63-.7,16.77-4.15,24.9-7.3,8.13-3.16,16.24-6.02,24.8-5.61,9.74.47,18.64,5.17,26.5,11.21,2.1,1.61,4.13,3.32,6.08,5.07,7.19,6.43,13.84,13.61,21.49,19.48,2.19,1.68,4.46,3.25,6.85,4.67,5.37,3.18,11.57,5.43,17.78,6.08,6.21.66,12.43-.28,17.81-3.49,3.26-1.95,5.96-4.55,8.25-7.54,3.47-4.52,6.01-9.92,8.17-15.21l-.34-.14h0Z"/><path class="cls-19" d="m430.44-3.54c-2.04,5-4.43,10.07-7.68,14.31-2.15,2.8-4.66,5.23-7.7,7.04-5.01,2.99-10.81,3.87-16.63,3.25-5.82-.61-11.64-2.72-16.68-5.71-2.25-1.33-4.38-2.81-6.45-4.39-7.2-5.52-13.49-12.31-20.3-18.41-1.85-1.66-3.78-3.28-5.77-4.81-7.47-5.73-15.95-10.22-25.27-10.68-8.19-.4-15.91,2.34-23.61,5.33-7.7,2.99-15.37,6.23-23.45,6.88-9.27.75-18.72-2.25-26.09-7.91-3.34-2.56-6.26-5.67-8.54-9.22l-.31.2c2.3,3.59,5.25,6.73,8.62,9.31,7.44,5.71,16.97,8.74,26.34,7.99,8.16-.66,15.87-3.92,23.56-6.91,7.69-2.99,15.36-5.7,23.46-5.3,9.21.44,17.62,4.89,25.06,10.6,1.99,1.53,3.91,3.14,5.75,4.79,6.8,6.09,13.09,12.88,20.32,18.43,2.07,1.59,4.22,3.08,6.48,4.42,5.08,3.01,10.95,5.14,16.82,5.76,5.88.62,11.76-.27,16.85-3.3,3.09-1.84,5.64-4.31,7.8-7.13,3.28-4.28,5.69-9.38,7.73-14.39l-.34-.14h0Z"/><path class="cls-19" d="m423-9.25c-1.92,4.71-4.18,9.5-7.24,13.49-2.02,2.64-4.4,4.93-7.26,6.64-4.72,2.82-10.19,3.65-15.67,3.07-5.48-.58-10.97-2.57-15.72-5.38-2.12-1.25-4.13-2.65-6.08-4.14-6.79-5.21-12.72-11.6-19.14-17.36-1.74-1.56-3.56-3.09-5.44-4.54-7.04-5.4-15.04-9.64-23.83-10.07-7.72-.37-15.01,2.21-22.26,5.02-7.26,2.82-14.49,5.87-22.11,6.49-8.74.71-17.65-2.12-24.6-7.46-3.15-2.42-5.9-5.35-8.05-8.69l-.31.2c2.17,3.38,4.95,6.34,8.13,8.78,7.02,5.39,16.01,8.25,24.85,7.53,7.7-.62,14.96-3.7,22.21-6.51,7.25-2.82,14.48-5.37,22.11-5,8.68.42,16.61,4.61,23.62,9.99,1.87,1.44,3.68,2.96,5.42,4.52,6.41,5.74,12.35,12.14,19.16,17.38,1.96,1.5,3.98,2.9,6.11,4.17,4.79,2.84,10.32,4.84,15.87,5.43,5.54.58,11.09-.25,15.89-3.12,2.91-1.74,5.32-4.06,7.36-6.73,3.1-4.04,5.36-8.85,7.29-13.57l-.34-.14h0Z"/><path class="cls-19" d="m415.55-14.96c-1.8,4.43-3.92,8.92-6.8,12.67-1.9,2.48-4.13,4.63-6.82,6.23-4.43,2.64-9.56,3.42-14.71,2.88-5.15-.54-10.31-2.41-14.76-5.05-1.99-1.18-3.88-2.49-5.71-3.89-6.37-4.89-11.95-10.9-17.98-16.31-1.64-1.47-3.34-2.9-5.11-4.26-6.62-5.08-14.13-9.06-22.39-9.46-7.26-.35-14.1,2.08-20.92,4.72-6.82,2.65-13.61,5.52-20.77,6.1-8.21.67-16.57-2-23.1-7-2.96-2.27-5.54-5.02-7.56-8.16l-.31.2c2.04,3.18,4.65,5.96,7.64,8.25,6.6,5.06,15.04,7.75,23.35,7.08,7.24-.59,14.06-3.48,20.87-6.12,6.81-2.64,13.61-5.04,20.77-4.7,8.15.39,15.6,4.33,22.19,9.39,1.76,1.35,3.46,2.78,5.09,4.24,6.02,5.39,11.6,11.41,18,16.32,1.84,1.41,3.74,2.73,5.74,3.92,4.5,2.67,9.7,4.55,14.91,5.1,5.21.55,10.43-.24,14.94-2.93,2.74-1.63,5-3.82,6.92-6.32,2.91-3.79,5.04-8.31,6.85-12.75l-.34-.14h0Z"/><path class="cls-19" d="m408.11-20.68c-1.69,4.14-3.67,8.34-6.36,11.85-1.78,2.31-3.86,4.33-6.37,5.83-4.14,2.47-8.94,3.2-13.76,2.69-4.81-.51-9.64-2.25-13.81-4.73-1.86-1.1-3.63-2.33-5.34-3.64-5.96-4.57-11.18-10.2-16.82-15.25-1.53-1.37-3.13-2.72-4.79-3.99-6.19-4.75-13.22-8.48-20.95-8.85-6.79-.33-13.2,1.94-19.57,4.42-6.38,2.48-12.73,5.16-19.43,5.7-7.68.62-15.5-1.87-21.6-6.55-2.77-2.12-5.18-4.7-7.07-7.63l-.31.2c1.91,2.97,4.35,5.58,7.15,7.73,6.17,4.74,14.08,7.25,21.85,6.62,6.77-.55,13.16-3.25,19.53-5.73,6.37-2.47,12.73-4.72,19.43-4.39,7.62.37,14.59,4.05,20.75,8.78,1.65,1.26,3.24,2.6,4.76,3.97,5.63,5.04,10.85,10.67,16.85,15.27,1.72,1.32,3.5,2.55,5.38,3.66,4.21,2.5,9.08,4.26,13.95,4.77,4.87.51,9.76-.22,13.98-2.74,2.56-1.53,4.68-3.57,6.48-5.92,2.72-3.55,4.72-7.78,6.41-11.93l-.34-.14h0Z"/><path class="cls-19" d="m446.06,179.73c1.04-.77,1.95-1.68,2.72-2.68,3.22-4.2,4.12-10.11,3.38-15.45-.92-6.6-3.9-12.68-6.1-18.92-2.2-6.24-3.64-13.12-1.5-19.33.72-2.08,1.75-3.92,3.03-5.59,2.75-3.59,6.64-6.37,10.82-8.92,4.18-2.56,8.67-4.89,12.62-7.61,4.28-2.94,8.04-6.57,11.19-10.68,7.73-10.07,11.78-23.01,10.68-35.68l-.36.03c1.09,12.58-2.93,25.43-10.61,35.43-3.13,4.08-6.87,7.68-11.11,10.6-3.93,2.7-8.41,5.04-12.61,7.6-4.2,2.57-8.12,5.36-10.92,9.01-1.3,1.69-2.36,3.57-3.09,5.69-2.18,6.33-.71,13.3,1.5,19.57,2.21,6.26,5.17,12.32,6.08,18.85.74,5.26-.17,11.09-3.31,15.17-.75.98-1.63,1.86-2.64,2.61l.22.29Z"/><path class="cls-19" d="m450.29,181.32c1.04-.77,1.95-1.68,2.72-2.68,3.22-4.2,4.12-10.11,3.38-15.45-.92-6.6-3.9-12.68-6.1-18.92-2.2-6.24-3.64-13.12-1.5-19.32.72-2.08,1.75-3.92,3.03-5.59,2.75-3.59,6.64-6.37,10.82-8.92,4.18-2.56,8.67-4.89,12.62-7.61,4.28-2.94,8.04-6.57,11.19-10.68,7.73-10.07,11.78-23.01,10.68-35.68l-.36.03c1.09,12.58-2.93,25.43-10.61,35.43-3.13,4.08-6.87,7.69-11.11,10.6-3.93,2.7-8.41,5.04-12.61,7.6-4.2,2.57-8.12,5.36-10.92,9.01-1.3,1.69-2.36,3.57-3.09,5.69-2.18,6.33-.71,13.3,1.5,19.57,2.21,6.26,5.17,12.32,6.08,18.85.74,5.26-.17,11.09-3.3,15.17-.75.98-1.63,1.86-2.64,2.61l.22.29Z"/><path class="cls-19" d="m454.52,182.91c1.04-.77,1.95-1.68,2.72-2.68,3.22-4.2,4.12-10.11,3.38-15.45-.92-6.6-3.9-12.68-6.1-18.92-2.2-6.24-3.64-13.12-1.5-19.32.72-2.08,1.75-3.92,3.03-5.59,2.75-3.59,6.64-6.37,10.82-8.92,4.18-2.56,8.67-4.89,12.62-7.61,4.28-2.94,8.04-6.57,11.19-10.68,7.73-10.07,11.78-23.01,10.68-35.68l-.36.03c1.09,12.58-2.93,25.43-10.61,35.43-3.13,4.08-6.87,7.69-11.11,10.6-3.93,2.7-8.41,5.04-12.61,7.6-4.2,2.56-8.12,5.36-10.92,9.01-1.3,1.69-2.36,3.57-3.09,5.69-2.18,6.33-.71,13.3,1.5,19.57,2.21,6.26,5.17,12.32,6.08,18.85.74,5.26-.17,11.09-3.31,15.17-.75.98-1.63,1.86-2.64,2.61l.22.29Z"/><path class="cls-19" d="m458.75,184.49c1.04-.77,1.95-1.68,2.72-2.68,3.22-4.2,4.12-10.11,3.38-15.45-.92-6.6-3.9-12.68-6.1-18.92-2.2-6.24-3.64-13.12-1.5-19.32.72-2.08,1.75-3.92,3.03-5.59,2.75-3.59,6.64-6.37,10.82-8.92,4.18-2.56,8.67-4.89,12.62-7.61,4.28-2.94,8.04-6.57,11.19-10.68,7.73-10.07,11.78-23.01,10.68-35.68l-.36.03c1.09,12.58-2.93,25.43-10.61,35.43-3.13,4.08-6.87,7.69-11.11,10.6-3.93,2.7-8.41,5.04-12.61,7.6-4.2,2.56-8.12,5.36-10.92,9.01-1.3,1.69-2.36,3.57-3.09,5.69-2.18,6.33-.71,13.3,1.5,19.57,2.21,6.26,5.17,12.32,6.08,18.85.74,5.26-.17,11.09-3.31,15.17-.75.98-1.63,1.86-2.64,2.61l.22.29Z"/><path class="cls-19" d="m191.74,162.02c1.65-2.93,2.08-6.27,1.65-9.59-.43-3.32-1.71-6.61-3.47-9.44-3.53-5.65-8.72-10-13.28-14.79-4.55-4.8-8.67-10.5-9.24-17.04-.51-5.82,1.72-11.03,4.87-16.07,3.15-5.03,7.21-9.87,10.29-14.92,9.34-15.28,9.77-35.59,1.09-51.25l-.32.18c8.62,15.54,8.19,35.72-1.08,50.89-3.07,5.01-7.12,9.85-10.29,14.92-3.17,5.06-5.45,10.36-4.93,16.3.59,6.67,4.77,12.44,9.34,17.26,4.57,4.82,9.74,9.15,13.23,14.74,1.74,2.79,3,6.04,3.42,9.29.42,3.26,0,6.52-1.61,9.37l.32.18Z"/><path class="cls-19" d="m196.25,161.75c1.65-2.93,2.08-6.27,1.66-9.59-.43-3.32-1.71-6.61-3.47-9.44-3.53-5.65-8.72-10-13.28-14.79-4.55-4.8-8.67-10.5-9.25-17.04-.51-5.82,1.72-11.03,4.87-16.07,3.15-5.04,7.21-9.87,10.29-14.92,9.34-15.28,9.77-35.59,1.09-51.25l-.32.18c8.62,15.54,8.19,35.72-1.08,50.89-3.07,5.02-7.12,9.85-10.29,14.92-3.17,5.06-5.45,10.36-4.93,16.3.59,6.67,4.77,12.44,9.34,17.26,4.57,4.82,9.74,9.15,13.23,14.74,1.74,2.79,3,6.04,3.42,9.29.42,3.26,0,6.52-1.61,9.37l.32.18Z"/><path class="cls-19" d="m200.76,161.47c1.65-2.93,2.08-6.27,1.66-9.59-.43-3.32-1.71-6.61-3.47-9.44-3.53-5.65-8.72-10-13.28-14.79-4.55-4.8-8.67-10.5-9.25-17.04-.51-5.82,1.72-11.03,4.87-16.07,3.15-5.04,7.21-9.87,10.29-14.92,9.34-15.28,9.77-35.59,1.09-51.25l-.32.18c8.62,15.54,8.19,35.72-1.08,50.89-3.07,5.02-7.12,9.85-10.29,14.92-3.17,5.06-5.45,10.36-4.93,16.3.59,6.67,4.77,12.44,9.34,17.26,4.57,4.82,9.74,9.15,13.23,14.74,1.74,2.79,3,6.04,3.42,9.29.42,3.26,0,6.52-1.61,9.37l.32.18Z"/><path class="cls-19" d="m205.28,161.2c1.65-2.93,2.08-6.27,1.65-9.59-.43-3.32-1.71-6.61-3.47-9.44-3.53-5.65-8.72-9.99-13.28-14.79-4.55-4.8-8.67-10.5-9.25-17.04-.51-5.82,1.72-11.03,4.87-16.07,3.15-5.04,7.21-9.87,10.29-14.92,9.34-15.28,9.77-35.59,1.09-51.25l-.32.18c8.62,15.54,8.19,35.72-1.08,50.89-3.07,5.01-7.12,9.85-10.29,14.92-3.17,5.06-5.45,10.36-4.93,16.3.59,6.67,4.77,12.44,9.34,17.26,4.57,4.82,9.74,9.15,13.23,14.74,1.74,2.79,3,6.04,3.42,9.29.42,3.26,0,6.52-1.61,9.37l.32.18h0Z"/></g><g class="cls-10"><path class="cls-17" d="m211.76,128.76c5.07,0,9.18-4.23,9.18-9.46s-4.11-9.46-9.18-9.46-9.18,4.23-9.18,9.46,4.11,9.46,9.18,9.46"/><path class="cls-15" d="m223.59,122.21c.09,2.44,2.19,4.34,4.7,4.25,2.51-.09,4.48-2.13,4.39-4.57-.09-2.44-2.19-4.34-4.7-4.25-2.51.09-4.48,2.13-4.39,4.57"/></g><g class="cls-8"><path class="cls-14" d="m79.52,56.07c-6.16,4.73-15,3.57-19.73-2.6-4.73-6.17-3.57-15,2.6-19.73,6.17-4.73,15-3.57,19.73,2.6,4.73,6.16,3.57,15-2.6,19.73"/><path class="cls-16" d="m100.86,150.28c-1.06.81-2.57.61-3.39-.45-.81-1.06-.61-2.57.45-3.39,1.06-.81,2.57-.61,3.39.45.81,1.06.61,2.57-.45,3.39"/></g><g class="cls-9"><path class="cls-16" d="m-6.09,16.88l.05-.04C7.51,6.44,25.73,2.39,42.41,6.06c14.48,3.18,27.25,11.71,41.35,16.56,6.32,2.17,13.35,3.41,20.1,3.12,6.75-.29,13.21-2.12,18.37-6.08,1.21-.93,2.35-1.98,3.4-3.15,6.89-7.67,8.34-18.95,6.57-29.05-1.78-10.1-6.35-19.43-10.37-28.81-4.02-9.39-7.57-19.29-7.16-29.44.47-11.43,6.34-22.49,15.4-29.44,1.14-.88,2.34-1.69,3.58-2.43l-.21-.35c-1.25.75-2.46,1.57-3.62,2.45-9.16,7.03-15.09,18.19-15.56,29.75-.42,10.26,3.17,20.22,7.19,29.62,4.02,9.4,8.58,18.7,10.34,28.72,1.76,10.02.3,21.18-6.47,28.71-1.04,1.15-2.16,2.18-3.35,3.1-5.08,3.89-11.45,5.7-18.14,5.99-6.68.29-13.67-.94-19.95-3.09-14.04-4.82-26.82-13.36-41.4-16.57C25.7,1.96,7.36,6.04-6.29,16.51l-.05.04.25.33Z"/><path class="cls-16" d="m-1.91,12.88l.05-.04C10.83,3.1,27.91-.7,43.54,2.74c13.57,2.98,25.54,10.98,38.76,15.52,5.92,2.04,12.52,3.2,18.85,2.92,6.33-.27,12.39-1.98,17.23-5.7,1.14-.87,2.2-1.85,3.19-2.95,6.46-7.19,7.83-17.77,6.16-27.25-1.67-9.47-5.96-18.21-9.72-27.01-3.77-8.8-7.1-18.08-6.71-27.59.44-10.71,5.94-21.07,14.43-27.58,1.07-.82,2.19-1.58,3.35-2.27l-.21-.36c-1.18.7-2.31,1.47-3.39,2.3-8.59,6.59-14.15,17.06-14.59,27.89-.39,9.63,2.97,18.96,6.74,27.77,3.77,8.81,8.04,17.53,9.69,26.92,1.65,9.39.28,19.84-6.06,26.9-.97,1.08-2.02,2.05-3.14,2.9-4.76,3.65-10.73,5.34-17,5.61-6.26.27-12.81-.88-18.7-2.9-13.16-4.52-25.14-12.52-38.81-15.54C27.88-1.13,10.68,2.7-2.11,12.52l-.05.04.25.33Z"/><path class="cls-16" d="m2.27,8.89l.05-.04C14.16-.24,30.09-3.79,44.67-.58c12.66,2.78,23.83,10.24,36.17,14.49,5.53,1.9,11.69,2.98,17.59,2.73,5.91-.26,11.57-1.85,16.09-5.32,1.06-.81,2.06-1.73,2.98-2.76,6.03-6.72,7.31-16.59,5.75-25.44-1.55-8.84-5.56-17-9.07-25.21-3.51-8.21-6.62-16.87-6.26-25.75.41-9.99,5.54-19.66,13.46-25.73,1-.77,2.04-1.48,3.13-2.12l-.21-.35c-1.1.65-2.16,1.37-3.17,2.15-8.02,6.15-13.21,15.92-13.62,26.04-.37,8.99,2.77,17.7,6.29,25.93,3.52,8.22,7.51,16.36,9.04,25.12,1.54,8.76.26,18.51-5.65,25.09-.91,1.01-1.88,1.91-2.93,2.71-4.44,3.4-10.01,4.98-15.86,5.24-5.84.25-11.96-.82-17.44-2.71C68.7,9.3,57.53,1.83,44.76-.98,30.06-4.21,14.01-.64,2.06,8.52l-.05.04.25.33Z"/><path class="cls-16" d="m6.45,4.89l.04-.03C17.48-3.58,32.27-6.87,45.8-3.89c11.75,2.58,22.12,9.51,33.58,13.45,5.14,1.77,10.85,2.77,16.34,2.53,5.49-.24,10.75-1.72,14.95-4.94.99-.76,1.91-1.61,2.77-2.56,5.61-6.24,6.79-15.41,5.35-23.63-1.44-8.21-5.16-15.79-8.42-23.41-3.26-7.62-6.15-15.66-5.81-23.9.38-9.27,5.14-18.24,12.49-23.88.93-.71,1.9-1.37,2.9-1.97l-.21-.35c-1.02.61-2,1.28-2.94,2-7.45,5.71-12.27,14.79-12.65,24.19-.34,8.35,2.57,16.44,5.84,24.08,3.27,7.64,6.97,15.19,8.4,23.32,1.43,8.13.24,17.18-5.25,23.28-.84.93-1.75,1.77-2.71,2.51-4.11,3.16-9.29,4.62-14.71,4.86-5.42.24-11.1-.76-16.19-2.51-11.4-3.91-21.77-10.85-33.63-13.46-13.66-3-28.56.31-39.66,8.83l-.04.03.25.33Z"/><path class="cls-16" d="m10.62.89l.04-.03c10.14-7.78,23.79-10.82,36.27-8.07,10.85,2.38,20.41,8.77,31,12.41,4.74,1.63,10.02,2.56,15.09,2.34,5.07-.22,9.92-1.59,13.8-4.57.91-.7,1.77-1.49,2.56-2.37,5.18-5.77,6.27-14.24,4.94-21.82-1.33-7.58-4.77-14.58-7.78-21.61-3.01-7.03-5.67-14.45-5.36-22.05.35-8.55,4.74-16.83,11.52-22.03.86-.66,1.75-1.26,2.68-1.82l-.21-.35c-.94.56-1.85,1.18-2.72,1.84-6.88,5.28-11.33,13.66-11.68,22.34-.31,7.71,2.38,15.18,5.39,22.23,3.02,7.05,6.43,14.02,7.75,21.52,1.32,7.5.22,15.85-4.84,21.48-.77.86-1.61,1.63-2.5,2.32-3.79,2.91-8.57,4.26-13.57,4.48-5,.22-10.24-.7-14.94-2.32-10.52-3.61-20.09-10.01-31.04-12.43-12.61-2.77-26.37.29-36.61,8.15l-.04.03.25.33Z"/><path class="cls-19" d="m220.48,146.97c-4.87-3.7-9.72-7.8-13.41-12.6-2.43-3.17-4.35-6.64-5.45-10.49-1.8-6.36-1.06-12.96,1.31-19.15,2.38-6.18,6.39-11.94,11.14-16.58,2.11-2.07,4.36-3.97,6.7-5.77,8.15-6.26,17.43-11.15,26.1-16.82,2.36-1.54,4.69-3.17,6.96-4.91,8.46-6.49,15.86-14.45,19.09-24.52,2.83-8.85,2.1-18.1,1.09-27.4-1.01-9.3-2.31-18.65-.65-27.69,1.9-10.37,7.96-19.83,16.31-26.24,3.79-2.91,8.04-5.18,12.59-6.64l-.13-.39c-4.6,1.47-8.9,3.77-12.72,6.7-8.43,6.47-14.55,16.01-16.46,26.49-1.67,9.13-.36,18.51.65,27.8,1.01,9.29,1.73,18.48-1.07,27.23-3.19,9.95-10.52,17.85-18.95,24.32-2.25,1.73-4.58,3.35-6.93,4.89-8.65,5.65-17.93,10.55-26.13,16.84-2.35,1.8-4.61,3.72-6.74,5.8-4.78,4.67-8.83,10.47-11.23,16.72-2.4,6.25-3.15,12.95-1.33,19.41,1.11,3.92,3.06,7.43,5.52,10.63,3.72,4.85,8.6,8.97,13.49,12.68l.25-.33h0Z"/><path class="cls-19" d="m228.91,140.5c-4.59-3.48-9.17-7.35-12.64-11.88-2.29-2.99-4.1-6.26-5.13-9.89-1.7-5.99-1-12.22,1.24-18.05,2.24-5.83,6.03-11.26,10.5-15.63,1.99-1.95,4.11-3.75,6.32-5.44,7.69-5.9,16.43-10.52,24.61-15.86,2.22-1.45,4.43-2.99,6.56-4.63,7.98-6.12,14.96-13.63,18.01-23.12,2.67-8.34,1.98-17.07,1.03-25.84-.96-8.77-2.18-17.58-.62-26.1,1.79-9.77,7.5-18.69,15.37-24.73,3.57-2.74,7.58-4.89,11.87-6.26l-.13-.39c-4.34,1.39-8.39,3.56-12,6.32-7.95,6.1-13.72,15.1-15.53,24.98-1.57,8.61-.34,17.46.61,26.22.96,8.76,1.63,17.43-1.01,25.67-3,9.38-9.92,16.83-17.86,22.92-2.12,1.63-4.32,3.16-6.53,4.61-8.16,5.33-16.91,9.95-24.64,15.88-2.21,1.7-4.35,3.51-6.35,5.47-4.51,4.41-8.33,9.88-10.59,15.77-2.26,5.89-2.98,12.22-1.25,18.31,1.05,3.7,2.89,7.01,5.2,10.03,3.51,4.57,8.11,8.46,12.72,11.96l.25-.33h0Z"/><path class="cls-19" d="m237.34,134.03c-4.32-3.27-8.61-6.91-11.87-11.16-2.15-2.8-3.85-5.87-4.82-9.29-1.59-5.62-.94-11.47,1.16-16.95,2.1-5.47,5.66-10.57,9.86-14.68,1.87-1.83,3.86-3.52,5.93-5.11,7.22-5.54,15.43-9.88,23.12-14.9,2.09-1.36,4.16-2.81,6.16-4.35,7.5-5.75,14.06-12.81,16.92-21.73,2.51-7.84,1.86-16.04.97-24.28-.9-8.24-2.04-16.51-.58-24.52,1.68-9.18,7.04-17.55,14.44-23.23,3.35-2.57,7.12-4.59,11.15-5.88l-.13-.39c-4.08,1.3-7.89,3.34-11.27,5.94-7.47,5.73-12.89,14.19-14.59,23.48-1.48,8.09-.32,16.41.58,24.64.9,8.23,1.53,16.37-.95,24.11-2.82,8.8-9.32,15.8-16.78,21.53-1.99,1.53-4.06,2.97-6.14,4.33-7.66,5.01-15.89,9.35-23.14,14.92-2.08,1.6-4.08,3.3-5.97,5.14-4.24,4.14-7.83,9.28-9.96,14.82-2.13,5.54-2.8,11.48-1.17,17.21.98,3.47,2.71,6.59,4.89,9.43,3.3,4.3,7.62,7.95,11.95,11.24l.25-.33h0Z"/><path class="cls-19" d="m245.78,127.56c-4.04-3.06-8.05-6.46-11.1-10.44-2.01-2.62-3.6-5.49-4.51-8.68-1.49-5.26-.88-10.73,1.09-15.85,1.97-5.12,5.29-9.89,9.22-13.72,1.75-1.71,3.61-3.29,5.55-4.78,6.75-5.18,14.44-9.24,21.63-13.94,1.95-1.28,3.89-2.63,5.77-4.07,7.01-5.38,13.16-11.98,15.83-20.34,2.35-7.34,1.74-15.01.91-22.72-.84-7.71-1.91-15.45-.54-22.93,1.57-8.58,6.59-16.41,13.5-21.72,3.13-2.41,6.66-4.29,10.43-5.5l-.13-.39c-3.82,1.22-7.38,3.13-10.55,5.56-6.99,5.37-12.07,13.28-13.66,21.97-1.38,7.57-.3,15.35.54,23.05.84,7.7,1.43,15.31-.89,22.55-2.64,8.23-8.71,14.78-15.69,20.13-1.87,1.43-3.8,2.78-5.74,4.05-7.17,4.68-14.86,8.74-21.65,13.96-1.95,1.49-3.82,3.08-5.59,4.81-3.96,3.88-7.32,8.69-9.32,13.87-1.99,5.18-2.62,10.75-1.1,16.11.92,3.25,2.54,6.17,4.58,8.82,3.09,4.02,7.13,7.44,11.18,10.51l.25-.33h0Z"/><path class="cls-19" d="m15.34,110.32c.54,1.37,1.26,2.62,2.13,3.76,3.65,4.75,9.86,7.47,15.91,8.22,7.5.93,15.02-.54,22.49-1.13,7.47-.58,15.43-.14,21.59,4.02,2.07,1.39,3.78,3.07,5.23,4.96,3.12,4.07,5.02,9.13,6.59,14.46,1.57,5.33,2.81,10.92,4.63,16.05,1.96,5.54,4.84,10.73,8.41,15.38,8.76,11.41,21.72,19.64,35.92,22.15l.07-.41c-14.08-2.49-26.97-10.67-35.66-22-3.55-4.62-6.4-9.77-8.35-15.27-1.81-5.09-3.04-10.68-4.62-16.03-1.58-5.35-3.49-10.46-6.66-14.59-1.47-1.92-3.22-3.63-5.32-5.05-6.29-4.24-14.35-4.68-21.85-4.09-7.5.59-15,2.04-22.41,1.13-5.97-.74-12.08-3.43-15.63-8.07-.85-1.11-1.55-2.33-2.08-3.66l-.38.15Z"/><path class="cls-19" d="m12.36,114.49c.54,1.37,1.26,2.62,2.13,3.76,3.65,4.75,9.86,7.47,15.91,8.22,7.5.93,15.02-.54,22.49-1.13,7.47-.58,15.43-.14,21.59,4.02,2.07,1.39,3.78,3.07,5.23,4.96,3.12,4.07,5.02,9.13,6.59,14.46,1.57,5.33,2.81,10.92,4.63,16.05,1.96,5.54,4.84,10.73,8.41,15.38,8.76,11.41,21.72,19.64,35.92,22.15l.07-.41c-14.08-2.49-26.97-10.67-35.66-22-3.55-4.62-6.4-9.77-8.35-15.27-1.81-5.09-3.04-10.68-4.62-16.03-1.58-5.35-3.49-10.46-6.66-14.59-1.47-1.92-3.22-3.63-5.32-5.05-6.29-4.24-14.35-4.68-21.85-4.09-7.5.59-15,2.04-22.41,1.13-5.97-.74-12.08-3.43-15.63-8.07-.85-1.11-1.55-2.33-2.08-3.66l-.38.15Z"/><path class="cls-19" d="m9.38,118.65c.54,1.37,1.26,2.62,2.13,3.76,3.65,4.75,9.86,7.47,15.91,8.22,7.5.93,15.02-.54,22.49-1.13,7.47-.58,15.43-.14,21.59,4.02,2.07,1.39,3.78,3.07,5.23,4.96,3.12,4.07,5.02,9.13,6.59,14.46,1.57,5.33,2.81,10.92,4.63,16.05,1.96,5.54,4.84,10.73,8.41,15.38,8.76,11.41,21.72,19.64,35.92,22.15l.07-.41c-14.08-2.49-26.97-10.67-35.66-22-3.55-4.62-6.4-9.77-8.35-15.27-1.81-5.09-3.04-10.68-4.62-16.03-1.58-5.35-3.49-10.45-6.66-14.59-1.47-1.92-3.22-3.63-5.32-5.05-6.29-4.24-14.35-4.68-21.85-4.09-7.5.59-15,2.04-22.41,1.13-5.97-.74-12.08-3.43-15.63-8.07-.85-1.11-1.55-2.33-2.08-3.66l-.38.15Z"/><path class="cls-19" d="m6.4,122.81c.54,1.37,1.26,2.62,2.13,3.76,3.65,4.75,9.86,7.47,15.91,8.22,7.5.93,15.02-.54,22.49-1.13,7.47-.58,15.43-.14,21.59,4.02,2.07,1.39,3.78,3.07,5.23,4.96,3.12,4.07,5.02,9.13,6.59,14.46,1.57,5.33,2.81,10.92,4.63,16.05,1.96,5.54,4.84,10.73,8.41,15.38,8.76,11.41,21.72,19.64,35.92,22.15l.07-.41c-14.08-2.49-26.97-10.67-35.66-22-3.55-4.62-6.4-9.77-8.35-15.27-1.81-5.09-3.04-10.68-4.62-16.03-1.58-5.35-3.49-10.45-6.66-14.59-1.47-1.92-3.22-3.63-5.32-5.05-6.29-4.24-14.35-4.68-21.85-4.09-7.5.59-15,2.04-22.41,1.13-5.97-.74-12.08-3.43-15.63-8.07-.85-1.11-1.55-2.33-2.08-3.66l-.38.15Z"/></g><g class="cls-7"><path class="cls-15" d="m45.21,107.76c.1,2.85,2.56,5.08,5.49,4.97,2.94-.1,5.23-2.5,5.13-5.34-.1-2.85-2.56-5.08-5.49-4.97-2.94.1-5.23,2.5-5.13,5.34"/></g><g class="cls-5"><g class="cls-4"><g class="cls-2"><g class="cls-3"><g class="cls-6"><path class="cls-20" d="m364.78,288.09c-5.02,0-9.1-4.1-9.1-9.16s4.07-9.16,9.1-9.16,9.1,4.1,9.1,9.16-4.07,9.16-9.1,9.16"/></g><g class="cls-12"><path class="cls-14" d="m408,247.95c-2.51,0-4.55-2.05-4.55-4.58s2.04-4.58,4.55-4.58,4.55,2.05,4.55,4.58-2.04,4.58-4.55,4.58"/><path class="cls-16" d="m-20.09,65.78h.12c30.14,0,60.02,14,79.43,37.22,16.86,20.16,25.58,46,40.13,68.12,6.52,9.91,15.05,19.27,24.82,26.16,9.77,6.89,20.79,11.32,32.28,11.32,2.7,0,5.42-.25,8.16-.76,17.9-3.36,32.07-17.7,40.45-33.88,8.37-16.18,11.99-34.29,16.45-51.87,4.46-17.59,10.13-35.4,21.62-49.27,12.93-15.61,33.04-24.85,53.19-24.85,2.54,0,5.09.15,7.62.45l.09-.78c-2.56-.3-5.14-.45-7.71-.45-20.38,0-40.7,9.33-53.79,25.13-11.62,14.03-17.3,31.96-21.78,49.58-4.47,17.62-8.08,35.66-16.39,51.71-8.3,16.04-22.33,30.19-39.9,33.48-2.69.5-5.36.74-8.02.74-11.29,0-22.16-4.35-31.84-11.18-9.67-6.82-18.14-16.12-24.61-25.95-14.48-22-23.2-47.87-40.18-68.19-19.57-23.4-49.65-37.49-80.03-37.5h-.12v.78Z"/><path class="cls-16" d="m-9.27,64.59h.11c28.12,0,56,13.06,74.11,34.72,15.73,18.81,23.87,42.92,37.45,63.57,6.09,9.25,14.05,17.98,23.17,24.42,9.12,6.43,19.41,10.57,30.14,10.57,2.52,0,5.06-.23,7.62-.71,16.72-3.14,29.95-16.53,37.77-31.64,7.82-15.1,11.19-32,15.35-48.42,4.16-16.41,9.45-33.03,20.17-45.97,12.06-14.56,30.82-23.18,49.62-23.18,2.37,0,4.75.14,7.11.42l.09-.78c-2.39-.28-4.79-.42-7.2-.42-19.03,0-38,8.71-50.22,23.46-10.85,13.1-16.15,29.84-20.33,46.28-4.17,16.44-7.54,33.28-15.29,48.25-7.75,14.96-20.83,28.16-37.22,31.23-2.51.47-5,.69-7.47.69-10.53,0-20.67-4.06-29.7-10.43-9.02-6.37-16.93-15.04-22.96-24.21-13.51-20.52-21.65-44.67-37.5-63.64C47.28,76.97,19.2,63.81-9.15,63.81h-.11v.78Z"/><path class="cls-16" d="m1.56,63.41h.1c26.1,0,51.98,12.12,68.78,32.23,14.6,17.46,22.15,39.85,34.77,59.02,5.65,8.59,13.04,16.7,21.52,22.68,8.47,5.98,18.03,9.82,28,9.82,2.34,0,4.7-.21,7.08-.66,15.53-2.92,27.82-15.36,35.08-29.39,7.26-14.02,10.39-29.72,14.26-44.96,3.86-15.24,8.77-30.66,18.72-42.67,11.19-13.51,28.61-21.51,46.05-21.51,2.2,0,4.4.13,6.59.39l.09-.78c-2.22-.26-4.45-.39-6.68-.39-17.68,0-35.29,8.09-46.65,21.79-10.08,12.17-15,27.71-18.88,42.98-3.87,15.27-7,30.9-14.19,44.79-7.19,13.89-19.34,26.13-34.54,28.98-2.33.44-4.64.64-6.94.64-9.77,0-19.18-3.77-27.56-9.68-8.38-5.91-15.71-13.96-21.31-22.47-12.54-19.05-20.1-41.47-34.82-59.09C54.08,74.84,28,62.62,1.66,62.62h-.1v.78Z"/><path class="cls-16" d="m12.39,62.22h.09c24.08,0,47.96,11.18,63.46,29.73,13.47,16.11,20.44,36.77,32.08,54.47,5.22,7.93,12.04,15.42,19.87,20.94,7.82,5.52,16.65,9.07,25.86,9.07,2.16,0,4.34-.2,6.54-.61,14.35-2.7,25.69-14.19,32.4-27.14,6.7-12.95,9.59-27.44,13.16-41.5,3.57-14.06,8.09-28.29,17.27-39.37,10.32-12.46,26.39-19.84,42.48-19.84,2.03,0,4.06.12,6.08.36l.09-.78c-2.05-.24-4.11-.36-6.17-.36-16.33,0-32.59,7.47-43.08,20.12-9.31,11.24-13.85,25.59-17.43,39.68-3.57,14.09-6.46,28.52-13.1,41.33-6.63,12.81-17.84,24.11-31.86,26.73-2.15.4-4.28.59-6.4.59-9.01,0-17.69-3.47-25.42-8.93-7.73-5.45-14.49-12.88-19.66-20.73-11.58-17.58-18.55-38.27-32.14-54.54-15.66-18.73-39.74-30.01-64.06-30.01h-.1v.78Z"/><path class="cls-18" d="m138.45,524.34c-3.22-11.83-5.91-24.28-5.91-36.41,0-8.01,1.17-15.88,4.12-23.35,4.86-12.31,14.04-21.93,25.29-28.87,11.25-6.94,24.58-11.19,37.69-12.78,5.85-.71,11.71-1,17.58-1,20.47,0,41.05,3.53,61.62,5.1,5.59.43,11.26.69,16.93.69,21.23,0,42.57-3.63,59.87-15.7,15.19-10.61,25.25-26.22,34.93-42.24,9.67-16.03,18.95-32.48,32.53-44.84,15.57-14.18,36.61-21.83,57.58-21.83,9.5,0,18.99,1.57,27.95,4.81l.26-.74c-9.05-3.28-18.62-4.86-28.21-4.86-21.15,0-42.38,7.71-58.1,22.04-13.7,12.48-23.01,29.01-32.67,45.02-9.66,16.02-19.67,31.51-34.7,42-17.1,11.94-38.27,15.56-59.42,15.56-5.65,0-11.31-.26-16.88-.69-20.52-1.57-41.12-5.1-61.68-5.1-5.89,0-11.78.29-17.67,1-13.21,1.6-26.64,5.88-38.01,12.89-11.36,7.01-20.67,16.74-25.61,29.24-2.99,7.58-4.17,15.55-4.17,23.64,0,12.25,2.71,24.77,5.93,36.62l.75-.21h0Z"/><path class="cls-18" d="m158.48,524.34c-3.04-11.19-5.59-22.96-5.59-34.44,0-7.57,1.11-15.01,3.89-22.08,4.6-11.64,13.27-20.73,23.92-27.3,10.64-6.56,23.25-10.59,35.65-12.09,5.53-.67,11.07-.94,16.62-.94,19.36,0,38.83,3.33,58.29,4.83,5.28.4,10.65.65,16.02.65,20.09,0,40.28-3.43,56.64-14.85,14.38-10.04,23.9-24.8,33.04-39.96,9.15-15.16,17.93-30.72,30.77-42.42,14.72-13.41,34.63-20.65,54.46-20.65,8.99,0,17.96,1.49,26.43,4.55l.26-.74c-8.56-3.1-17.62-4.6-26.7-4.6-20.02,0-40.1,7.3-54.98,20.85-12.96,11.81-21.77,27.44-30.91,42.59-9.14,15.15-18.61,29.81-32.82,39.73-16.17,11.29-36.19,14.71-56.2,14.71-5.35,0-10.69-.24-15.96-.65-19.41-1.49-38.9-4.83-58.35-4.83-5.58,0-11.15.27-16.72.95-12.5,1.51-25.21,5.57-35.96,12.2-10.75,6.63-19.57,15.85-24.24,27.67-2.83,7.18-3.95,14.72-3.95,22.37,0,11.59,2.56,23.43,5.61,34.65l.75-.21h0Z"/><path class="cls-18" d="m178.5,524.34c-2.87-10.55-5.27-21.65-5.27-32.47,0-7.14,1.04-14.15,3.67-20.81,4.33-10.97,12.51-19.54,22.54-25.73,10.03-6.19,21.91-9.98,33.6-11.39,5.21-.63,10.44-.89,15.67-.89,18.25,0,36.61,3.14,54.96,4.55,4.98.38,10.04.61,15.11.61,18.94,0,37.99-3.23,53.42-14.01,13.56-9.47,22.54-23.39,31.16-37.69,8.62-14.3,16.91-28.97,29.01-39.99,13.88-12.64,32.64-19.46,51.33-19.46,8.47,0,16.93,1.4,24.92,4.29l.26-.74c-8.07-2.92-16.62-4.34-25.18-4.34-18.88,0-37.82,6.88-51.85,19.67-12.22,11.14-20.53,25.88-29.15,40.16-8.62,14.29-17.55,28.1-30.94,37.45-15.24,10.64-34.12,13.87-52.98,13.87-5.04,0-10.08-.23-15.05-.61-18.3-1.4-36.68-4.55-55.02-4.55-5.26,0-10.51.26-15.77.89-11.79,1.43-23.77,5.25-33.92,11.5-10.14,6.25-18.45,14.95-22.86,26.11-2.67,6.77-3.72,13.88-3.72,21.1,0,10.93,2.42,22.1,5.29,32.68l.75-.21h0Z"/><path class="cls-18" d="m198.53,524.34c-2.7-9.91-4.95-20.34-4.95-30.5,0-6.7.98-13.29,3.45-19.54,4.07-10.3,11.75-18.35,21.17-24.16,9.42-5.81,20.58-9.37,31.56-10.7,4.9-.59,9.8-.83,14.72-.83,17.15,0,34.39,2.95,51.63,4.27,4.68.36,9.44.58,14.19.58,17.8,0,35.69-3.04,50.2-13.16,12.75-8.9,21.18-21.99,29.28-35.41,8.1-13.43,15.88-27.21,27.25-37.56,13.03-11.87,30.65-18.28,48.21-18.28,7.96,0,15.9,1.31,23.4,4.03l.26-.74c-7.59-2.75-15.62-4.08-23.66-4.08-17.74,0-35.54,6.47-48.73,18.48-11.49,10.47-19.29,24.32-27.39,37.74-8.1,13.42-16.48,26.4-29.06,35.18-14.31,9.99-32.04,13.02-49.76,13.02-4.74,0-9.47-.22-14.14-.57-17.19-1.32-34.46-4.28-51.69-4.28-4.94,0-9.88.24-14.81.84-11.08,1.34-22.34,4.93-31.87,10.81-9.53,5.88-17.34,14.05-21.49,24.54-2.51,6.36-3.5,13.05-3.5,19.83,0,10.28,2.27,20.77,4.97,30.7l.75-.21h0Z"/><path class="cls-18" d="m218.55,524.34c-2.52-9.27-4.63-19.02-4.63-28.52,0-6.27.91-12.43,3.22-18.27,3.8-9.63,10.98-17.15,19.79-22.59,8.81-5.43,19.25-8.76,29.52-10.01,4.58-.55,9.17-.78,13.77-.78,16.04,0,32.17,2.76,48.3,4,4.38.34,8.83.54,13.28.54,16.65,0,33.4-2.84,46.98-12.32,11.93-8.33,19.82-20.58,27.4-33.14,7.58-12.57,14.86-25.46,25.48-35.14,12.19-11.1,28.66-17.09,45.08-17.09,7.44,0,14.87,1.23,21.88,3.77l.26-.74c-7.1-2.57-14.62-3.82-22.15-3.82-16.6,0-33.26,6.05-45.6,17.3-10.75,9.8-18.05,22.76-25.63,35.31-7.57,12.55-15.42,24.69-27.18,32.9-13.38,9.34-29.96,12.18-46.53,12.18-4.43,0-8.86-.2-13.22-.54-16.08-1.23-32.23-4-48.36-4-4.62,0-9.24.23-13.86.79-10.37,1.25-20.91,4.62-29.83,10.12-8.92,5.5-16.23,13.15-20.11,22.97-2.35,5.96-3.28,12.22-3.28,18.56,0,9.62,2.12,19.43,4.65,28.73l.75-.21h0Z"/><path class="cls-19" d="m347.52-70.16c1,7.15,4.63,13.42,9.66,18.52,5.03,5.1,11.48,9.04,18.15,11.55,13.33,5.02,27.76,5.63,41.7,7.85,13.94,2.22,28.33,6.56,37.78,16.95,8.42,9.24,11.42,21.07,12.63,33.77,1.21,12.7.63,26.26,1.96,38.9,4.04,38.28,29.69,73.45,64.74,88.8l.31-.72c-34.79-15.22-60.28-50.19-64.28-88.17-1.33-12.56-.74-26.12-1.96-38.89-1.22-12.77-4.24-24.8-12.83-34.23-9.67-10.6-24.23-14.96-38.24-17.19-14-2.23-28.37-2.85-41.54-7.81-6.58-2.48-12.93-6.36-17.87-11.37-4.94-5.01-8.47-11.12-9.44-18.08l-.77.11Z"/><path class="cls-19" d="m340.24-63.8c1,7.15,4.63,13.42,9.66,18.52,5.03,5.1,11.48,9.04,18.15,11.55,13.33,5.02,27.76,5.63,41.7,7.85,13.94,2.22,28.33,6.56,37.78,16.95,8.42,9.24,11.42,21.07,12.62,33.77,1.21,12.7.63,26.26,1.96,38.9,4.04,38.28,29.68,73.45,64.74,88.8l.31-.72c-34.79-15.22-60.28-50.19-64.28-88.17-1.33-12.56-.74-26.12-1.96-38.89-1.22-12.77-4.24-24.8-12.83-34.23-9.67-10.6-24.23-14.96-38.24-17.19-14-2.23-28.37-2.85-41.54-7.81-6.58-2.48-12.93-6.36-17.87-11.37-4.94-5.01-8.47-11.12-9.44-18.08l-.77.11Z"/><path class="cls-19" d="m332.96-57.43c1,7.15,4.63,13.42,9.66,18.52,5.03,5.1,11.48,9.04,18.15,11.55,13.33,5.02,27.76,5.63,41.7,7.85,13.94,2.22,28.33,6.56,37.78,16.95,8.42,9.24,11.42,21.07,12.62,33.77,1.21,12.7.63,26.26,1.96,38.9,4.04,38.28,29.68,73.45,64.74,88.8l.31-.72c-34.79-15.22-60.28-50.19-64.28-88.17-1.33-12.56-.74-26.12-1.96-38.89-1.22-12.77-4.24-24.8-12.83-34.23-9.67-10.6-24.23-14.96-38.24-17.19-14-2.23-28.37-2.85-41.54-7.81-6.58-2.48-12.93-6.36-17.87-11.37-4.94-5.01-8.47-11.12-9.44-18.08l-.77.11Z"/><path class="cls-19" d="m325.68-51.07c1,7.15,4.63,13.42,9.66,18.52,5.03,5.1,11.48,9.04,18.15,11.55,13.33,5.02,27.75,5.63,41.69,7.85,13.94,2.22,28.33,6.56,37.79,16.95,8.42,9.24,11.42,21.07,12.62,33.77,1.21,12.7.63,26.26,1.96,38.9,4.04,38.28,29.68,73.45,64.74,88.8l.31-.72c-34.79-15.22-60.28-50.19-64.28-88.17-1.33-12.56-.74-26.12-1.96-38.89-1.21-12.77-4.24-24.8-12.83-34.23-9.66-10.6-24.23-14.96-38.24-17.19-14-2.23-28.38-2.85-41.54-7.81-6.58-2.48-12.93-6.36-17.87-11.37-4.94-5.01-8.47-11.12-9.44-18.08l-.77.11h0Z"/></g></g></g></g></g></g></svg>